<?xml version="1.0" encoding="UTF-8" standalone="no"?>
<!-- Generator: Adobe Illustrator 22.1.0, SVG Export Plug-In . SVG Version: 6.00 Build 0)  -->

<svg
   xmlns:dc="http://purl.org/dc/elements/1.1/"
   xmlns:cc="http://creativecommons.org/ns#"
   xmlns:rdf="http://www.w3.org/1999/02/22-rdf-syntax-ns#"
   xmlns:svg="http://www.w3.org/2000/svg"
   xmlns="http://www.w3.org/2000/svg"
   xmlns:sodipodi="http://sodipodi.sourceforge.net/DTD/sodipodi-0.dtd"
   xmlns:inkscape="http://www.inkscape.org/namespaces/inkscape"
   version="1.1"
   id="Lager_2"
   x="0px"
   y="0px"
   viewBox="-8 -108 288 160"
   xml:space="preserve"
   sodipodi:docname="logo_small_green.svg"
   width="90"
   height="50"
   inkscape:version="0.92.4 (5da689c313, 2019-01-14)"><metadata
   id="metadata3929"><rdf:RDF><cc:Work
       rdf:about=""><dc:format>image/svg+xml</dc:format><dc:type
         rdf:resource="http://purl.org/dc/dcmitype/StillImage" /><dc:title></dc:title></cc:Work></rdf:RDF></metadata><defs
   id="defs3927" /><sodipodi:namedview
   pagecolor="#ffffff"
   bordercolor="#666666"
   borderopacity="1"
   objecttolerance="10"
   gridtolerance="10"
   guidetolerance="10"
   inkscape:pageopacity="0"
   inkscape:pageshadow="2"
   inkscape:window-width="1920"
   inkscape:window-height="1001"
   id="namedview3925"
   showgrid="false"
   scale-x="3.2"
   viewbox-y="-108"
   viewbox-x="-8"
   inkscape:zoom="1.2986553"
   inkscape:cx="141.3"
   inkscape:cy="77.949997"
   inkscape:window-x="-9"
   inkscape:window-y="-9"
   inkscape:window-maximized="1"
   inkscape:current-layer="Lager_2" />
<style
   type="text/css"
   id="style3904">
	.st0{fill:#05D48E;}
</style>
<g
   id="g3922"
   transform="translate(0,-105.89999)">
	<g
   id="g3908">
		<path
   class="st0"
   d="m 63.9,18.2 -25.5,76 h 0.1 35.8 l 2.4,7.2 H 36 l -11.2,33.3 h 7.7 l 8.7,-25.9 h 38 l 8.7,25.9 h 7.7 l -31.5,-94 3.7,-11 35.2,105.1 h 7.7 L 71.6,18.2 Z m 7.9,68.6 H 48.6 L 60.2,52.2 Z"
   id="path3906"
   inkscape:connector-curvature="0"
   style="fill:#05d48e" />
	</g>
	<g
   id="g3912">
		<polygon
   class="st0"
   points="149.6,134.8 166.3,84.8 183.1,134.8 189.5,134.8 228.6,18.2 220.9,18.2 193.9,98.9 178.4,52.8 170.7,52.8 190,110.4 186.3,121.4 163.3,52.8 154.3,52.8 138.8,98.9 111.7,18.2 104.1,18.2 135,110.4 131.3,121.4 96.7,18.2 89,18.2 128.1,134.8 134.5,134.8 158.8,62.3 162.5,73.4 141.9,134.8 "
   id="polygon3910"
   style="fill:#05d48e" />
	</g>
	<g
   id="g3916">
		<polygon
   class="st0"
   points="243.7,18.2 236,18.2 196.9,134.8 204.6,134.8 "
   id="polygon3914"
   style="fill:#05d48e" />
	</g>
	<g
   id="g3920">
		<polygon
   class="st0"
   points="258.8,18.2 251.1,18.2 212,134.8 219.7,134.8 "
   id="polygon3918"
   style="fill:#05d48e" />
	</g>
</g>
</svg>