<svg width="2100" height="484" viewBox="0 0 2100 484" fill="none" xmlns="http://www.w3.org/2000/svg">
<path fill-rule="evenodd" clip-rule="evenodd" d="M471 473H11V13H471V473ZM89 395H300L89 90V395ZM183 90L394 395V90H183Z" fill="#2EC78F"/>
<path d="M626 473H704V154L947 473H1015V12H937V332L694 12H626V473Z" fill="#2EC78F"/>
<path d="M1115 472V12L1193 12.1054V472H1115Z" fill="#2EC78F"/>
<path d="M1393 86V473H1471V86H1617V12H1251V86H1393Z" fill="#2EC78F"/>
<path fill-rule="evenodd" clip-rule="evenodd" d="M1855 5C1985.89 5 2092 111.109 2092 242C2092 372.891 1985.89 479 1855 479C1724.11 479 1618 372.891 1618 242C1618 111.109 1724.11 5 1855 5ZM1855.5 87C1769.62 87 1700 156.62 1700 242.5C1700 328.38 1769.62 398 1855.5 398C1941.38 398 2011 328.38 2011 242.5C2011 156.62 1941.38 87 1855.5 87Z" fill="#2EC78F"/>
</svg>
