<svg xmlns="http://www.w3.org/2000/svg" xmlns:xlink="http://www.w3.org/1999/xlink" xmlns:lucid="lucid" width="1880" height="918"><g transform="translate(280 -120)" lucid:page-tab-id="0_0"><path d="M-1806.4 0h3676.8v1323.2h-3676.8z" fill="#fff"/><path d="M500 679h840v339H500z" stroke="#000" stroke-opacity="0" stroke-width="2" fill="#99d2f2" fill-opacity=".8"/><path d="M1000 300h580v339h-580z" stroke="#000" stroke-opacity="0" stroke-width="2" fill="#a3d977" fill-opacity=".8"/><path d="M-260 300H840v339H-260z" stroke="#000" stroke-opacity="0" stroke-width="2" fill="#f5b5c8" fill-opacity=".8"/><path d="M500 140h240v120H500z" stroke="#000" stroke-width="2" fill="#fff"/><use xlink:href="#a" transform="matrix(1,0,0,1,505,145) translate(31.625 38.4625)"/><use xlink:href="#b" transform="matrix(1,0,0,1,505,145) translate(61.575 38.4625)"/><use xlink:href="#c" transform="matrix(1,0,0,1,505,145) translate(148.47500000000002 38.4625)"/><use xlink:href="#d" transform="matrix(1,0,0,1,505,145) translate(115 60.0625)"/><use xlink:href="#e" transform="matrix(1,0,0,1,505,145) translate(58.55 81.66250000000001)"/><use xlink:href="#f" transform="matrix(1,0,0,1,505,145) translate(103.5 81.66250000000001)"/><path d="M800 140h240v120H800z" stroke="#000" stroke-width="2" fill="#fff"/><use xlink:href="#g" transform="matrix(1,0,0,1,805,145) translate(47.625 59.0875)"/><path d="M300 479h240v120H300z" stroke="#000" stroke-width="2" fill-opacity="0"/><use xlink:href="#h" transform="matrix(1,0,0,1,305,484) translate(70.025 38.4625)"/><use xlink:href="#d" transform="matrix(1,0,0,1,305,484) translate(115 60.0625)"/><use xlink:href="#i" transform="matrix(1,0,0,1,305,484) translate(70.1 81.66250000000001)"/><use xlink:href="#j" transform="matrix(1,0,0,1,305,484) translate(108.05 81.66250000000001)"/><path d="M40 479h240v120H40z" stroke="#000" stroke-width="2" fill-opacity="0"/><use xlink:href="#k" transform="matrix(1,0,0,1,45,484) translate(88.6 38.4625)"/><use xlink:href="#d" transform="matrix(1,0,0,1,45,484) translate(115 60.0625)"/><use xlink:href="#l" transform="matrix(1,0,0,1,45,484) translate(29.674999999999983 81.66250000000001)"/><use xlink:href="#m" transform="matrix(1,0,0,1,45,484) translate(100.425 81.66250000000001)"/><use xlink:href="#n" transform="matrix(1,0,0,1,45,484) translate(138.375 81.66250000000001)"/><path d="M560 479h240v120H560z" stroke="#000" stroke-width="2" fill-opacity="0"/><use xlink:href="#o" transform="matrix(1,0,0,1,565,484) translate(81.05 38.4625)"/><use xlink:href="#d" transform="matrix(1,0,0,1,565,484) translate(115 60.0625)"/><use xlink:href="#p" transform="matrix(1,0,0,1,565,484) translate(63.05 81.66250000000001)"/><use xlink:href="#q" transform="matrix(1,0,0,1,565,484) translate(112 81.66250000000001)"/><path d="M-220 479H20v120h-240z" stroke="#000" stroke-width="2" fill-opacity="0"/><use xlink:href="#r" transform="matrix(1,0,0,1,-215,484) translate(13.624999999999986 38.4625)"/><use xlink:href="#s" transform="matrix(1,0,0,1,-215,484) translate(133.475 38.4625)"/><use xlink:href="#t" transform="matrix(1,0,0,1,-215,484) translate(166.47500000000002 38.4625)"/><use xlink:href="#d" transform="matrix(1,0,0,1,-215,484) translate(115 60.0625)"/><use xlink:href="#u" transform="matrix(1,0,0,1,-215,484) translate(30.275000000000006 81.66250000000001)"/><use xlink:href="#v" transform="matrix(1,0,0,1,-215,484) translate(76.17500000000001 81.66250000000001)"/><use xlink:href="#w" transform="matrix(1,0,0,1,-215,484) translate(127.775 81.66250000000001)"/><path d="M1040 480h240v120h-240z" stroke="#000" stroke-width="2" fill-opacity="0"/><use xlink:href="#x" transform="matrix(1,0,0,1,1045,485) translate(37.14999999999999 24.7125)"/><use xlink:href="#y" transform="matrix(1,0,0,1,1045,485) translate(106 24.7125)"/><use xlink:href="#d" transform="matrix(1,0,0,1,1045,485) translate(115 46.3125)"/><use xlink:href="#z" transform="matrix(1,0,0,1,1045,485) translate(59.074999999999996 67.91250000000001)"/><use xlink:href="#A" transform="matrix(1,0,0,1,1045,485) translate(121.025 67.91250000000001)"/><use xlink:href="#B" transform="matrix(1,0,0,1,1045,485) translate(40.675 89.51250000000002)"/><use xlink:href="#C" transform="matrix(1,0,0,1,1045,485) translate(103.375 89.51250000000002)"/><path d="M1300 480h240v120h-240z" stroke="#000" stroke-width="2" fill-opacity="0"/><use xlink:href="#D" transform="matrix(1,0,0,1,1305,485) translate(61.55 38.4625)"/><use xlink:href="#d" transform="matrix(1,0,0,1,1305,485) translate(115 60.0625)"/><use xlink:href="#E" transform="matrix(1,0,0,1,1305,485) translate(59.125 81.66250000000001)"/><use xlink:href="#F" transform="matrix(1,0,0,1,1305,485) translate(98.975 81.66250000000001)"/><path d="M920 262v138H-100v77" stroke="#000" stroke-width="2" fill="none"/><path d="M921 262.03h-2V261h2zM-99 478h-2v-1.03h2z"/><path d="M680 477v-38h.05v-38" stroke="#000" stroke-width="2" fill="none"/><path d="M681 478h-2v-1.03h2z"/><path d="M680.05 401.03V400M1160 478v-78H920V262" stroke="#000" stroke-width="2" fill="none"/><path d="M1161 479h-2v-1.03h2zM921 262.03h-2V261h2z"/><path d="M1420 478v-78h-284.07" stroke="#000" stroke-width="2" fill="none"/><path d="M1421 479h-2v-1.03h2z"/><path d="M1135.96 400h-1.03M420 477v-76" stroke="#000" stroke-width="2" fill="none"/><path d="M421 478h-2v-1.03h2z"/><path d="M420 401.03V400M160 477v-38h-.1v-38" stroke="#000" stroke-width="2" fill="none"/><path d="M161 478h-2v-1.03h2z"/><path d="M159.9 401.03V400" stroke="#000" stroke-width="2" fill="none"/><path d="M800 861.16h240v120H800z" stroke="#000" stroke-width="2" fill-opacity="0"/><g><use xlink:href="#G" transform="matrix(1,0,0,1,805,866.1615205344928) translate(76.05 38.4625)"/><use xlink:href="#d" transform="matrix(1,0,0,1,805,866.1615205344928) translate(115 60.0625)"/><use xlink:href="#H" transform="matrix(1,0,0,1,805,866.1615205344928) translate(69.625 81.66250000000001)"/><use xlink:href="#I" transform="matrix(1,0,0,1,805,866.1615205344928) translate(114.475 81.66250000000001)"/></g><path d="M540 861.16h240v120H540z" stroke="#000" stroke-width="2" fill-opacity="0"/><g><use xlink:href="#J" transform="matrix(1,0,0,1,545,866.1615205344928) translate(76.1 35.025)"/><use xlink:href="#d" transform="matrix(1,0,0,1,545,866.1615205344928) translate(115 56.625)"/><use xlink:href="#K" transform="matrix(1,0,0,1,545,866.1615205344928) translate(57.574999999999996 80.89166666666668)"/><use xlink:href="#L" transform="matrix(1,0,0,1,545,866.1615205344928) translate(109.525 80.89166666666668)"/></g><path d="M1060 861.16h240v120h-240z" stroke="#000" stroke-width="2" fill-opacity="0"/><g><use xlink:href="#M" transform="matrix(1,0,0,1,1065,866.1615205344928) translate(58.12499999999999 38.4625)"/><use xlink:href="#d" transform="matrix(1,0,0,1,1065,866.1615205344928) translate(115 60.0625)"/><use xlink:href="#N" transform="matrix(1,0,0,1,1065,866.1615205344928) translate(48.57499999999999 81.66250000000001)"/><use xlink:href="#O" transform="matrix(1,0,0,1,1065,866.1615205344928) translate(119.475 81.66250000000001)"/></g><path d="M920 859.16V379.84" stroke="#000" stroke-width="2" fill="none"/><path d="M921 860.16h-2v-1.02h2z"/><path d="M920 379.86v-1.02M660 859.16V764.3h259" stroke="#000" stroke-width="2" fill="none"/><path d="M661 860.16h-2v-1.02h2z"/><path d="M918.97 764.3H920M1180 859.16V764.1H921" stroke="#000" stroke-width="2" fill="none"/><path d="M1181 860.16h-2v-1.02h2z"/><path d="M921.03 764.1H920" stroke="#000" stroke-width="2" fill="none"/><path d="M-240 320H0v60h-240z" stroke="#000" stroke-opacity="0" stroke-width="2" fill="#fff" fill-opacity="0"/><g><use xlink:href="#P" transform="matrix(1,0,0,1,-235,325) translate(0 31.22222222222222)"/></g><path d="M1020 320h240v60h-240z" stroke="#000" stroke-opacity="0" stroke-width="2" fill="#fff" fill-opacity="0"/><g><use xlink:href="#Q" transform="matrix(1,0,0,1,1025,325) translate(0 31.22222222222222)"/></g><path d="M520 700h240v60H520z" stroke="#000" stroke-opacity="0" stroke-width="2" fill="#fff" fill-opacity="0"/><g><use xlink:href="#R" transform="matrix(1,0,0,1,525,705) translate(0 31.138888888888893)"/></g><defs><path d="M30-248c118-7 216 8 213 122C240-48 200 0 122 0H30v-248zM63-27c89 8 146-16 146-99s-60-101-146-95v194" id="S"/><path d="M30 0v-248h187v28H63v79h144v27H63v87h162V0H30" id="T"/><g id="a"><use transform="matrix(0.05,0,0,0.05,0,0)" xlink:href="#S"/><use transform="matrix(0.05,0,0,0.05,12.950000000000001,0)" xlink:href="#T"/></g><path d="M30 0v-248h33v221h125V0H30" id="U"/><path d="M185-189c-5-48-123-54-124 2 14 75 158 14 163 119 3 78-121 87-175 55-17-10-28-26-33-46l33-7c5 56 141 63 141-1 0-78-155-14-162-118-5-82 145-84 179-34 5 7 8 16 11 25" id="V"/><path d="M127-220V0H93v-220H8v-28h204v28h-85" id="W"/><g id="b"><use transform="matrix(0.05,0,0,0.05,0,0)" xlink:href="#T"/><use transform="matrix(0.05,0,0,0.05,12,0)" xlink:href="#U"/><use transform="matrix(0.05,0,0,0.05,22,0)" xlink:href="#S"/><use transform="matrix(0.05,0,0,0.05,34.95,0)" xlink:href="#V"/><use transform="matrix(0.05,0,0,0.05,46.95,0)" xlink:href="#W"/><use transform="matrix(0.05,0,0,0.05,57.900000000000006,0)" xlink:href="#T"/><use transform="matrix(0.05,0,0,0.05,69.9,0)" xlink:href="#V"/></g><path d="M233-177c-1 41-23 64-60 70L243 0h-38l-65-103H63V0H30v-248c88 3 205-21 203 71zM63-129c60-2 137 13 137-47 0-61-80-42-137-45v92" id="X"/><path d="M205 0l-28-72H64L36 0H1l101-248h38L239 0h-34zm-38-99l-47-123c-12 45-31 82-46 123h93" id="Y"/><g id="c"><use transform="matrix(0.05,0,0,0.05,0,0)" xlink:href="#X"/><use transform="matrix(0.05,0,0,0.05,12.950000000000001,0)" xlink:href="#Y"/><use transform="matrix(0.05,0,0,0.05,24.950000000000003,0)" xlink:href="#Y"/><use transform="matrix(0.05,0,0,0.05,36.95,0)" xlink:href="#S"/></g><path d="M143 4C61 4 22-44 18-125c-5-107 100-154 193-111 17 8 29 25 37 43l-32 9c-13-25-37-40-76-40-61 0-88 39-88 99 0 61 29 100 91 101 35 0 62-11 79-27v-45h-74v-28h105v86C228-13 192 4 143 4" id="Z"/><path d="M141-36C126-15 110 5 73 4 37 3 15-17 15-53c-1-64 63-63 125-63 3-35-9-54-41-54-24 1-41 7-42 31l-33-3c5-37 33-52 76-52 45 0 72 20 72 64v82c-1 20 7 32 28 27v20c-31 9-61-2-59-35zM48-53c0 20 12 33 32 33 41-3 63-29 60-74-43 2-92-5-92 41" id="aa"/><path d="M114-163C36-179 61-72 57 0H25l-1-190h30c1 12-1 29 2 39 6-27 23-49 58-41v29" id="ab"/><path d="M85-194c31 0 48 13 60 33l-1-100h32l1 261h-30c-2-10 0-23-3-31C134-8 116 4 85 4 32 4 16-35 15-94c0-66 23-100 70-100zm9 24c-40 0-46 34-46 75 0 40 6 74 45 74 42 0 51-32 51-76 0-42-9-74-50-73" id="ac"/><g id="e"><use transform="matrix(0.05,0,0,0.05,0,0)" xlink:href="#Z"/><use transform="matrix(0.05,0,0,0.05,14,0)" xlink:href="#aa"/><use transform="matrix(0.05,0,0,0.05,24,0)" xlink:href="#ab"/><use transform="matrix(0.05,0,0,0.05,29.950000000000003,0)" xlink:href="#ac"/></g><path d="M59-47c-2 24 18 29 38 22v24C64 9 27 4 27-40v-127H5v-23h24l9-43h21v43h35v23H59v120" id="ad"/><path d="M100-194c63 0 86 42 84 106H49c0 40 14 67 53 68 26 1 43-12 49-29l28 8c-11 28-37 45-77 45C44 4 14-33 15-96c1-61 26-98 85-98zm52 81c6-60-76-77-97-28-3 7-6 17-6 28h103" id="ae"/><path d="M117-194c89-4 53 116 60 194h-32v-121c0-31-8-49-39-48C34-167 62-67 57 0H25l-1-190h30c1 10-1 24 2 32 11-22 29-35 61-36" id="af"/><path d="M135-143c-3-34-86-38-87 0 15 53 115 12 119 90S17 21 10-45l28-5c4 36 97 45 98 0-10-56-113-15-118-90-4-57 82-63 122-42 12 7 21 19 24 35" id="ag"/><path d="M108 0H70L1-190h34L89-25l56-165h34" id="ah"/><path d="M24-231v-30h32v30H24zM24 0v-190h32V0H24" id="ai"/><path d="M143 0L79-87 56-68V0H24v-261h32v163l83-92h37l-77 82L181 0h-38" id="aj"/><g id="f"><use transform="matrix(0.05,0,0,0.05,0,0)" xlink:href="#V"/><use transform="matrix(0.05,0,0,0.05,12,0)" xlink:href="#ad"/><use transform="matrix(0.05,0,0,0.05,17,0)" xlink:href="#ae"/><use transform="matrix(0.05,0,0,0.05,27,0)" xlink:href="#af"/><use transform="matrix(0.05,0,0,0.05,37,0)" xlink:href="#ag"/><use transform="matrix(0.05,0,0,0.05,46,0)" xlink:href="#ah"/><use transform="matrix(0.05,0,0,0.05,55,0)" xlink:href="#ai"/><use transform="matrix(0.05,0,0,0.05,58.95,0)" xlink:href="#aj"/></g><path d="M197 0v-115H63V0H30v-248h33v105h134v-105h34V0h-34" id="ak"/><path d="M140-251c81 0 123 46 123 126C263-46 219 4 140 4 59 4 17-45 17-125s42-126 123-126zm0 227c63 0 89-41 89-101s-29-99-89-99c-61 0-89 39-89 99S79-25 140-24" id="al"/><path d="M137 0h-34L2-248h35l83 218 83-218h36" id="am"/><path d="M137-103V0h-34v-103L8-248h37l75 118 75-118h37" id="an"/><g id="g"><use transform="matrix(0.05,0,0,0.05,0,0)" xlink:href="#ak"/><use transform="matrix(0.05,0,0,0.05,12.950000000000001,0)" xlink:href="#al"/><use transform="matrix(0.05,0,0,0.05,26.950000000000003,0)" xlink:href="#am"/><use transform="matrix(0.05,0,0,0.05,38.95,0)" xlink:href="#T"/><use transform="matrix(0.05,0,0,0.05,50.95,0)" xlink:href="#S"/><use transform="matrix(0.05,0,0,0.05,63.900000000000006,0)" xlink:href="#V"/><use transform="matrix(0.05,0,0,0.05,75.9,0)" xlink:href="#W"/><use transform="matrix(0.05,0,0,0.05,86.85000000000001,0)" xlink:href="#an"/><use transform="matrix(0.05,0,0,0.05,98.85000000000001,0)" xlink:href="#X"/><use transform="matrix(0.05,0,0,0.05,111.80000000000001,0)" xlink:href="#T"/><use transform="matrix(0.05,0,0,0.05,123.80000000000001,0)" xlink:href="#W"/></g><path d="M33 0v-248h34V0H33" id="ao"/><path d="M190 0L58-211 59 0H30v-248h39L202-35l-2-213h31V0h-41" id="ap"/><g id="h"><use transform="matrix(0.05,0,0,0.05,0,0)" xlink:href="#V"/><use transform="matrix(0.05,0,0,0.05,12,0)" xlink:href="#al"/><use transform="matrix(0.05,0,0,0.05,26,0)" xlink:href="#V"/><use transform="matrix(0.05,0,0,0.05,38,0)" xlink:href="#ao"/><use transform="matrix(0.05,0,0,0.05,43,0)" xlink:href="#Y"/><use transform="matrix(0.05,0,0,0.05,55,0)" xlink:href="#U"/><use transform="matrix(0.05,0,0,0.05,65,0)" xlink:href="#T"/><use transform="matrix(0.05,0,0,0.05,77,0)" xlink:href="#ap"/></g><path d="M153-248C145-148 188 4 80 4 36 3 13-21 6-62l32-5c4 25 16 42 43 43 27 0 39-20 39-49v-147H72v-28h81" id="aq"/><path d="M84 4C-5 8 30-112 23-190h32v120c0 31 7 50 39 49 72-2 45-101 50-169h31l1 190h-30c-1-10 1-25-2-33-11 22-28 36-60 37" id="ar"/><g id="i"><use transform="matrix(0.05,0,0,0.05,0,0)" xlink:href="#aq"/><use transform="matrix(0.05,0,0,0.05,9,0)" xlink:href="#ar"/><use transform="matrix(0.05,0,0,0.05,19,0)" xlink:href="#af"/><use transform="matrix(0.05,0,0,0.05,29,0)" xlink:href="#ai"/></g><g id="j"><use transform="matrix(0.05,0,0,0.05,0,0)" xlink:href="#U"/><use transform="matrix(0.05,0,0,0.05,10,0)" xlink:href="#ae"/><use transform="matrix(0.05,0,0,0.05,20,0)" xlink:href="#ai"/><use transform="matrix(0.05,0,0,0.05,23.95,0)" xlink:href="#ab"/><use transform="matrix(0.05,0,0,0.05,29.899999999999995,0)" xlink:href="#ah"/><use transform="matrix(0.05,0,0,0.05,38.9,0)" xlink:href="#ai"/><use transform="matrix(0.05,0,0,0.05,42.85,0)" xlink:href="#aj"/></g><path d="M63-220v92h138v28H63V0H30v-248h175v28H63" id="as"/><g id="k"><use transform="matrix(0.05,0,0,0.05,0,0)" xlink:href="#S"/><use transform="matrix(0.05,0,0,0.05,12.950000000000001,0)" xlink:href="#X"/><use transform="matrix(0.05,0,0,0.05,25.900000000000002,0)" xlink:href="#ao"/><use transform="matrix(0.05,0,0,0.05,30.900000000000002,0)" xlink:href="#as"/><use transform="matrix(0.05,0,0,0.05,41.85,0)" xlink:href="#W"/></g><path d="M100-194c62-1 85 37 85 99 1 63-27 99-86 99S16-35 15-95c0-66 28-99 85-99zM99-20c44 1 53-31 53-75 0-43-8-75-51-75s-53 32-53 75 10 74 51 75" id="at"/><path d="M115-194c53 0 69 39 70 98 0 66-23 100-70 100C84 3 66-7 56-30L54 0H23l1-261h32v101c10-23 28-34 59-34zm-8 174c40 0 45-34 45-75 0-40-5-75-45-74-42 0-51 32-51 76 0 43 10 73 51 73" id="au"/><path d="M24-231v-30h32v30H24zM-9 49c24 4 33-6 33-30v-209h32V24c2 40-23 58-65 49V49" id="av"/><path d="M181-161c11 16 11 39 14 66 9 87-81 123-140 81L37 7H8l32-38C30-47 27-69 25-95c-8-91 81-121 141-83l16-18h30zM109-20c57 4 58-63 49-114L73-35c7 11 20 15 36 15zm2-150c-56-3-57 65-48 113l85-99c-8-10-20-13-37-14" id="aw"/><g id="l"><use transform="matrix(0.05,0,0,0.05,0,0)" xlink:href="#W"/><use transform="matrix(0.05,0,0,0.05,8.950000000000001,0)" xlink:href="#at"/><use transform="matrix(0.05,0,0,0.05,18.950000000000003,0)" xlink:href="#ab"/><use transform="matrix(0.05,0,0,0.05,24.900000000000002,0)" xlink:href="#au"/><use transform="matrix(0.05,0,0,0.05,34.900000000000006,0)" xlink:href="#av"/><use transform="matrix(0.05,0,0,0.05,38.85000000000001,0)" xlink:href="#aw"/><use transform="matrix(0.05,0,0,0.05,49.80000000000001,0)" xlink:href="#ab"/><use transform="matrix(0.05,0,0,0.05,55.750000000000014,0)" xlink:href="#af"/></g><path d="M160-131c35 5 61 23 61 61C221 17 115-2 30 0v-248c76 3 177-17 177 60 0 33-19 50-47 57zm-97-11c50-1 110 9 110-42 0-47-63-36-110-37v79zm0 115c55-2 124 14 124-45 0-56-70-42-124-44v89" id="ax"/><g id="m"><use transform="matrix(0.05,0,0,0.05,0,0)" xlink:href="#ax"/><use transform="matrix(0.05,0,0,0.05,12,0)" xlink:href="#aw"/><use transform="matrix(0.05,0,0,0.05,22.950000000000003,0)" xlink:href="#ae"/></g><g id="n"><use transform="matrix(0.05,0,0,0.05,0,0)" xlink:href="#U"/><use transform="matrix(0.05,0,0,0.05,10,0)" xlink:href="#aa"/><use transform="matrix(0.05,0,0,0.05,20,0)" xlink:href="#ar"/><use transform="matrix(0.05,0,0,0.05,30,0)" xlink:href="#ar"/><use transform="matrix(0.05,0,0,0.05,40,0)" xlink:href="#ah"/><use transform="matrix(0.05,0,0,0.05,49,0)" xlink:href="#ai"/><use transform="matrix(0.05,0,0,0.05,52.95,0)" xlink:href="#aj"/></g><path d="M30-248c87 1 191-15 191 75 0 78-77 80-158 76V0H30v-248zm33 125c57 0 124 11 124-50 0-59-68-47-124-48v98" id="ay"/><path d="M240 0l2-218c-23 76-54 145-80 218h-23L58-218 59 0H30v-248h44l77 211c21-75 51-140 76-211h43V0h-30" id="az"/><g id="o"><use transform="matrix(0.05,0,0,0.05,0,0)" xlink:href="#ay"/><use transform="matrix(0.05,0,0,0.05,12,0)" xlink:href="#X"/><use transform="matrix(0.05,0,0,0.05,24.950000000000003,0)" xlink:href="#al"/><use transform="matrix(0.05,0,0,0.05,38.95,0)" xlink:href="#az"/><use transform="matrix(0.05,0,0,0.05,53.900000000000006,0)" xlink:href="#al"/></g><g id="p"><use transform="matrix(0.05,0,0,0.05,0,0)" xlink:href="#U"/><use transform="matrix(0.05,0,0,0.05,10,0)" xlink:href="#ai"/><use transform="matrix(0.05,0,0,0.05,13.949999999999998,0)" xlink:href="#af"/><use transform="matrix(0.05,0,0,0.05,23.95,0)" xlink:href="#ac"/><use transform="matrix(0.05,0,0,0.05,33.95,0)" xlink:href="#aa"/></g><g id="q"><use transform="matrix(0.05,0,0,0.05,0,0)" xlink:href="#U"/><use transform="matrix(0.05,0,0,0.05,10,0)" xlink:href="#aa"/><use transform="matrix(0.05,0,0,0.05,20,0)" xlink:href="#ab"/><use transform="matrix(0.05,0,0,0.05,25.950000000000003,0)" xlink:href="#ag"/><use transform="matrix(0.05,0,0,0.05,34.95,0)" xlink:href="#ae"/><use transform="matrix(0.05,0,0,0.05,44.95,0)" xlink:href="#af"/></g><path d="M170 0v-72H74L39 0H4l121-248h212v28H204v79h123v27H204v87h141V0H170zm0-222c-33-8-36 21-46 42L86-99h84v-123" id="aA"/><g id="r"><use transform="matrix(0.05,0,0,0.05,0,0)" xlink:href="#ap"/><use transform="matrix(0.05,0,0,0.05,12.950000000000001,0)" xlink:href="#aA"/><use transform="matrix(0.05,0,0,0.05,30.950000000000003,0)" xlink:href="#X"/><use transform="matrix(0.05,0,0,0.05,43.900000000000006,0)" xlink:href="#ao"/><use transform="matrix(0.05,0,0,0.05,48.900000000000006,0)" xlink:href="#ap"/><use transform="matrix(0.05,0,0,0.05,61.85,0)" xlink:href="#Z"/><use transform="matrix(0.05,0,0,0.05,75.85000000000001,0)" xlink:href="#V"/><use transform="matrix(0.05,0,0,0.05,87.85000000000001,0)" xlink:href="#U"/><use transform="matrix(0.05,0,0,0.05,97.85000000000001,0)" xlink:href="#ao"/><use transform="matrix(0.05,0,0,0.05,102.85000000000001,0)" xlink:href="#am"/></g><g id="s"><use transform="matrix(0.05,0,0,0.05,0,0)" xlink:href="#al"/><use transform="matrix(0.05,0,0,0.05,14,0)" xlink:href="#Z"/></g><path d="M194 0L95-120 63-95V0H30v-248h33v124l119-124h40L117-140 236 0h-42" id="aB"/><path d="M232-93c-1 65-40 97-104 97C67 4 28-28 28-90v-158h33c8 89-33 224 67 224 102 0 64-133 71-224h33v155" id="aC"/><g id="t"><use transform="matrix(0.05,0,0,0.05,0,0)" xlink:href="#aB"/><use transform="matrix(0.05,0,0,0.05,12,0)" xlink:href="#aC"/><use transform="matrix(0.05,0,0,0.05,24.950000000000003,0)" xlink:href="#X"/><use transform="matrix(0.05,0,0,0.05,37.900000000000006,0)" xlink:href="#V"/></g><path d="M96-169c-40 0-48 33-48 73s9 75 48 75c24 0 41-14 43-38l32 2c-6 37-31 61-74 61-59 0-76-41-82-99-10-93 101-131 147-64 4 7 5 14 7 22l-32 3c-4-21-16-35-41-35" id="aD"/><g id="u"><use transform="matrix(0.05,0,0,0.05,0,0)" xlink:href="#T"/><use transform="matrix(0.05,0,0,0.05,12,0)" xlink:href="#ab"/><use transform="matrix(0.05,0,0,0.05,17.95,0)" xlink:href="#ai"/><use transform="matrix(0.05,0,0,0.05,21.9,0)" xlink:href="#aD"/><use transform="matrix(0.05,0,0,0.05,30.899999999999995,0)" xlink:href="#aa"/></g><path d="M266 0h-40l-56-210L115 0H75L2-248h35L96-30l15-64 43-154h32l59 218 59-218h35" id="aE"/><g id="v"><use transform="matrix(0.05,0,0,0.05,0,0)" xlink:href="#aE"/><use transform="matrix(0.05,0,0,0.05,16.599999999999998,0)" xlink:href="#ae"/><use transform="matrix(0.05,0,0,0.05,26.599999999999994,0)" xlink:href="#ae"/><use transform="matrix(0.05,0,0,0.05,36.599999999999994,0)" xlink:href="#af"/></g><g id="w"><use transform="matrix(0.05,0,0,0.05,0,0)" xlink:href="#Z"/><use transform="matrix(0.05,0,0,0.05,14,0)" xlink:href="#av"/><use transform="matrix(0.05,0,0,0.05,17.95,0)" xlink:href="#ae"/><use transform="matrix(0.05,0,0,0.05,27.950000000000003,0)" xlink:href="#ad"/><use transform="matrix(0.05,0,0,0.05,32.95,0)" xlink:href="#ag"/><use transform="matrix(0.05,0,0,0.05,41.95,0)" xlink:href="#ar"/><use transform="matrix(0.05,0,0,0.05,51.95,0)" xlink:href="#af"/><use transform="matrix(0.05,0,0,0.05,61.95,0)" xlink:href="#ac"/></g><g id="x"><use transform="matrix(0.05,0,0,0.05,0,0)" xlink:href="#W"/><use transform="matrix(0.05,0,0,0.05,10.950000000000001,0)" xlink:href="#ao"/><use transform="matrix(0.05,0,0,0.05,15.950000000000001,0)" xlink:href="#ak"/><use transform="matrix(0.05,0,0,0.05,28.900000000000002,0)" xlink:href="#U"/><use transform="matrix(0.05,0,0,0.05,38.900000000000006,0)" xlink:href="#S"/><use transform="matrix(0.05,0,0,0.05,51.85,0)" xlink:href="#T"/></g><g id="y"><use transform="matrix(0.05,0,0,0.05,0,0)" xlink:href="#ay"/><use transform="matrix(0.05,0,0,0.05,12,0)" xlink:href="#an"/><use transform="matrix(0.05,0,0,0.05,24,0)" xlink:href="#W"/><use transform="matrix(0.05,0,0,0.05,34.95,0)" xlink:href="#ak"/><use transform="matrix(0.05,0,0,0.05,47.900000000000006,0)" xlink:href="#al"/><use transform="matrix(0.05,0,0,0.05,61.900000000000006,0)" xlink:href="#ap"/><use transform="matrix(0.05,0,0,0.05,74.85000000000001,0)" xlink:href="#V"/></g><g id="z"><use transform="matrix(0.05,0,0,0.05,0,0)" xlink:href="#Y"/><use transform="matrix(0.05,0,0,0.05,12,0)" xlink:href="#af"/><use transform="matrix(0.05,0,0,0.05,22,0)" xlink:href="#ac"/><use transform="matrix(0.05,0,0,0.05,32,0)" xlink:href="#ae"/><use transform="matrix(0.05,0,0,0.05,42,0)" xlink:href="#ab"/><use transform="matrix(0.05,0,0,0.05,47.95,0)" xlink:href="#ag"/></g><g id="A"><use transform="matrix(0.05,0,0,0.05,0,0)" xlink:href="#ax"/><use transform="matrix(0.05,0,0,0.05,12,0)" xlink:href="#ab"/><use transform="matrix(0.05,0,0,0.05,17.95,0)" xlink:href="#ae"/><use transform="matrix(0.05,0,0,0.05,27.950000000000003,0)" xlink:href="#ah"/><use transform="matrix(0.05,0,0,0.05,36.95,0)" xlink:href="#ai"/><use transform="matrix(0.05,0,0,0.05,40.900000000000006,0)" xlink:href="#aj"/></g><path d="M24 0v-261h32V0H24" id="aF"/><path d="M210-169c-67 3-38 105-44 169h-31v-121c0-29-5-50-35-48C34-165 62-65 56 0H25l-1-190h30c1 10-1 24 2 32 10-44 99-50 107 0 11-21 27-35 58-36 85-2 47 119 55 194h-31v-121c0-29-5-49-35-48" id="aG"/><g id="B"><use transform="matrix(0.05,0,0,0.05,0,0)" xlink:href="#aE"/><use transform="matrix(0.05,0,0,0.05,16.95,0)" xlink:href="#ai"/><use transform="matrix(0.05,0,0,0.05,20.9,0)" xlink:href="#aF"/><use transform="matrix(0.05,0,0,0.05,24.849999999999998,0)" xlink:href="#aF"/><use transform="matrix(0.05,0,0,0.05,28.799999999999997,0)" xlink:href="#ai"/><use transform="matrix(0.05,0,0,0.05,32.75,0)" xlink:href="#aa"/><use transform="matrix(0.05,0,0,0.05,42.75,0)" xlink:href="#aG"/></g><g id="C"><use transform="matrix(0.05,0,0,0.05,0,0)" xlink:href="#Y"/><use transform="matrix(0.05,0,0,0.05,12,0)" xlink:href="#af"/><use transform="matrix(0.05,0,0,0.05,22,0)" xlink:href="#ac"/><use transform="matrix(0.05,0,0,0.05,32,0)" xlink:href="#ae"/><use transform="matrix(0.05,0,0,0.05,42,0)" xlink:href="#ab"/><use transform="matrix(0.05,0,0,0.05,47.95,0)" xlink:href="#ag"/><use transform="matrix(0.05,0,0,0.05,56.95,0)" xlink:href="#ag"/><use transform="matrix(0.05,0,0,0.05,65.95,0)" xlink:href="#at"/><use transform="matrix(0.05,0,0,0.05,75.95,0)" xlink:href="#af"/></g><g id="D"><use transform="matrix(0.05,0,0,0.05,0,0)" xlink:href="#V"/><use transform="matrix(0.05,0,0,0.05,12,0)" xlink:href="#T"/><use transform="matrix(0.05,0,0,0.05,24,0)" xlink:href="#az"/><use transform="matrix(0.05,0,0,0.05,38.95,0)" xlink:href="#ao"/><use transform="matrix(0.05,0,0,0.05,43.95,0)" xlink:href="#aB"/><use transform="matrix(0.05,0,0,0.05,55.95,0)" xlink:href="#al"/><use transform="matrix(0.05,0,0,0.05,69.95,0)" xlink:href="#U"/><use transform="matrix(0.05,0,0,0.05,79.95,0)" xlink:href="#al"/><use transform="matrix(0.05,0,0,0.05,93.95,0)" xlink:href="#ap"/></g><g id="E"><use transform="matrix(0.05,0,0,0.05,0,0)" xlink:href="#T"/><use transform="matrix(0.05,0,0,0.05,12,0)" xlink:href="#ai"/><use transform="matrix(0.05,0,0,0.05,15.949999999999998,0)" xlink:href="#ab"/><use transform="matrix(0.05,0,0,0.05,21.9,0)" xlink:href="#ai"/><use transform="matrix(0.05,0,0,0.05,25.849999999999994,0)" xlink:href="#aj"/></g><g id="F"><use transform="matrix(0.05,0,0,0.05,0,0)" xlink:href="#ak"/><use transform="matrix(0.05,0,0,0.05,12.950000000000001,0)" xlink:href="#ae"/><use transform="matrix(0.05,0,0,0.05,22.950000000000003,0)" xlink:href="#aG"/><use transform="matrix(0.05,0,0,0.05,37.900000000000006,0)" xlink:href="#ag"/><use transform="matrix(0.05,0,0,0.05,46.900000000000006,0)" xlink:href="#ad"/><use transform="matrix(0.05,0,0,0.05,51.900000000000006,0)" xlink:href="#aa"/><use transform="matrix(0.05,0,0,0.05,61.900000000000006,0)" xlink:href="#ac"/></g><g id="G"><use transform="matrix(0.05,0,0,0.05,0,0)" xlink:href="#S"/><use transform="matrix(0.05,0,0,0.05,12.950000000000001,0)" xlink:href="#T"/><use transform="matrix(0.05,0,0,0.05,24.950000000000003,0)" xlink:href="#am"/><use transform="matrix(0.05,0,0,0.05,36.95,0)" xlink:href="#aB"/><use transform="matrix(0.05,0,0,0.05,48.95,0)" xlink:href="#al"/><use transform="matrix(0.05,0,0,0.05,62.95,0)" xlink:href="#az"/></g><path d="M209 0H11v-25l151-195H24v-28h176v25L50-27h159V0" id="aH"/><g id="H"><use transform="matrix(0.05,0,0,0.05,0,0)" xlink:href="#aH"/><use transform="matrix(0.05,0,0,0.05,10.950000000000001,0)" xlink:href="#aa"/><use transform="matrix(0.05,0,0,0.05,20.950000000000003,0)" xlink:href="#ai"/><use transform="matrix(0.05,0,0,0.05,24.900000000000002,0)" xlink:href="#aG"/></g><g id="I"><use transform="matrix(0.05,0,0,0.05,0,0)" xlink:href="#ao"/><use transform="matrix(0.05,0,0,0.05,5,0)" xlink:href="#aG"/><use transform="matrix(0.05,0,0,0.05,19.950000000000003,0)" xlink:href="#ab"/><use transform="matrix(0.05,0,0,0.05,25.900000000000002,0)" xlink:href="#aa"/><use transform="matrix(0.05,0,0,0.05,35.900000000000006,0)" xlink:href="#af"/></g><g id="J"><use transform="matrix(0.05,0,0,0.05,0,0)" xlink:href="#W"/><use transform="matrix(0.05,0,0,0.05,10.950000000000001,0)" xlink:href="#aC"/><use transform="matrix(0.05,0,0,0.05,23.900000000000002,0)" xlink:href="#X"/><use transform="matrix(0.05,0,0,0.05,36.85,0)" xlink:href="#aB"/><use transform="matrix(0.05,0,0,0.05,48.85,0)" xlink:href="#al"/><use transform="matrix(0.05,0,0,0.05,62.85,0)" xlink:href="#az"/></g><g id="K"><use transform="matrix(0.05,0,0,0.05,0,0)" xlink:href="#al"/><use transform="matrix(0.05,0,0,0.05,14,0)" xlink:href="#aF"/><use transform="matrix(0.05,0,0,0.05,17.95,0)" xlink:href="#aa"/><use transform="matrix(0.05,0,0,0.05,27.950000000000003,0)" xlink:href="#ah"/><use transform="matrix(0.05,0,0,0.05,36.95,0)" xlink:href="#aa"/></g><g id="L"><use transform="matrix(0.05,0,0,0.05,0,0)" xlink:href="#as"/><use transform="matrix(0.05,0,0,0.05,10.950000000000001,0)" xlink:href="#aa"/><use transform="matrix(0.05,0,0,0.05,20.950000000000003,0)" xlink:href="#aj"/><use transform="matrix(0.05,0,0,0.05,29.950000000000003,0)" xlink:href="#ag"/><use transform="matrix(0.05,0,0,0.05,38.95,0)" xlink:href="#ac"/><use transform="matrix(0.05,0,0,0.05,48.95,0)" xlink:href="#aa"/><use transform="matrix(0.05,0,0,0.05,58.95,0)" xlink:href="#aF"/></g><g id="M"><use transform="matrix(0.05,0,0,0.05,0,0)" xlink:href="#as"/><use transform="matrix(0.05,0,0,0.05,9.950000000000001,0)" xlink:href="#Y"/><use transform="matrix(0.05,0,0,0.05,21.950000000000003,0)" xlink:href="#S"/><use transform="matrix(0.05,0,0,0.05,34.900000000000006,0)" xlink:href="#S"/><use transform="matrix(0.05,0,0,0.05,47.85000000000001,0)" xlink:href="#T"/><use transform="matrix(0.05,0,0,0.05,59.85,0)" xlink:href="#X"/><use transform="matrix(0.05,0,0,0.05,72.80000000000001,0)" xlink:href="#aB"/><use transform="matrix(0.05,0,0,0.05,84.80000000000001,0)" xlink:href="#al"/><use transform="matrix(0.05,0,0,0.05,98.80000000000001,0)" xlink:href="#az"/></g><path d="M106-169C34-169 62-67 57 0H25v-261h32l-1 103c12-21 28-36 61-36 89 0 53 116 60 194h-32v-121c2-32-8-49-39-48" id="aI"/><g id="N"><use transform="matrix(0.05,0,0,0.05,0,0)" xlink:href="#W"/><use transform="matrix(0.05,0,0,0.05,10.950000000000001,0)" xlink:href="#aI"/><use transform="matrix(0.05,0,0,0.05,20.950000000000003,0)" xlink:href="#ae"/><use transform="matrix(0.05,0,0,0.05,30.950000000000003,0)" xlink:href="#ab"/><use transform="matrix(0.05,0,0,0.05,36.900000000000006,0)" xlink:href="#ae"/><use transform="matrix(0.05,0,0,0.05,46.900000000000006,0)" xlink:href="#ag"/><use transform="matrix(0.05,0,0,0.05,55.900000000000006,0)" xlink:href="#aa"/></g><path d="M177-190C167-65 218 103 67 71c-23-6-38-20-44-43l32-5c15 47 100 32 89-28v-30C133-14 115 1 83 1 29 1 15-40 15-95c0-56 16-97 71-98 29-1 48 16 59 35 1-10 0-23 2-32h30zM94-22c36 0 50-32 50-73 0-42-14-75-50-75-39 0-46 34-46 75s6 73 46 73" id="aJ"/><path d="M179-190L93 31C79 59 56 82 12 73V49c39 6 53-20 64-50L1-190h34L92-34l54-156h33" id="aK"/><g id="O"><use transform="matrix(0.05,0,0,0.05,0,0)" xlink:href="#ap"/><use transform="matrix(0.05,0,0,0.05,12.950000000000001,0)" xlink:href="#aJ"/><use transform="matrix(0.05,0,0,0.05,22.950000000000003,0)" xlink:href="#ar"/><use transform="matrix(0.05,0,0,0.05,32.95,0)" xlink:href="#aK"/><use transform="matrix(0.05,0,0,0.05,41.95,0)" xlink:href="#ae"/><use transform="matrix(0.05,0,0,0.05,51.95,0)" xlink:href="#af"/></g><path d="M238-95c0 69-44 99-111 99C63 4 22-25 22-93v-155h51v151c-1 38 19 59 55 60 90 1 49-130 58-211h52v153" id="aL"/><path d="M175 0L67-191c6 58 2 128 3 191H24v-248h59L193-55c-6-58-2-129-3-193h46V0h-61" id="aM"/><path d="M24-248c120-7 223 5 221 122C244-46 201 0 124 0H24v-248zM76-40c74 7 117-18 117-86 0-67-45-88-117-82v168" id="aN"/><path d="M24 0v-248h195v40H76v63h132v40H76v65h150V0H24" id="aO"/><path d="M240-174c0 40-23 61-54 70L253 0h-59l-57-94H76V0H24v-248c93 4 217-23 216 74zM76-134c48-2 112 12 112-38 0-48-66-32-112-35v73" id="aP"/><path d="M67-125c0 54 23 88 75 88 28 0 53-7 68-21v-34h-60v-39h108v91C232-14 192 4 140 4 58 4 20-42 15-125 8-236 126-280 215-234c19 10 29 26 37 47l-47 15c-11-23-29-39-63-39-53 1-75 33-75 86" id="aQ"/><path d="M24-248c93 1 206-16 204 79-1 75-69 88-152 82V0H24v-248zm52 121c47 0 100 7 100-41 0-47-54-39-100-39v80" id="aR"/><g id="P"><use transform="matrix(0.08641975308641976,0,0,0.08641975308641976,0,0)" xlink:href="#aL"/><use transform="matrix(0.08641975308641976,0,0,0.08641975308641976,22.38271604938272,0)" xlink:href="#aM"/><use transform="matrix(0.08641975308641976,0,0,0.08641975308641976,44.76543209876544,0)" xlink:href="#aN"/><use transform="matrix(0.08641975308641976,0,0,0.08641975308641976,67.14814814814815,0)" xlink:href="#aO"/><use transform="matrix(0.08641975308641976,0,0,0.08641975308641976,87.8888888888889,0)" xlink:href="#aP"/><use transform="matrix(0.08641975308641976,0,0,0.08641975308641976,110.27160493827162,0)" xlink:href="#aQ"/><use transform="matrix(0.08641975308641976,0,0,0.08641975308641976,134.46913580246917,0)" xlink:href="#aP"/><use transform="matrix(0.08641975308641976,0,0,0.08641975308641976,156.85185185185188,0)" xlink:href="#aL"/><use transform="matrix(0.08641975308641976,0,0,0.08641975308641976,179.23456790123458,0)" xlink:href="#aR"/><use transform="matrix(0.08641975308641976,0,0,0.08641975308641976,199.97530864197532,0)" xlink:href="#aR"/><use transform="matrix(0.08641975308641976,0,0,0.08641975308641976,220.71604938271602,0)" xlink:href="#aO"/><use transform="matrix(0.08641975308641976,0,0,0.08641975308641976,241.45679012345678,0)" xlink:href="#aP"/></g><path d="M24 0v-248h52V0H24" id="aS"/><path d="M136-208V0H84v-208H4v-40h212v40h-80" id="aT"/><path d="M169-182c-1-43-94-46-97-3 18 66 151 10 154 114 3 95-165 93-204 36-6-8-10-19-12-30l50-8c3 46 112 56 116 5-17-69-150-10-154-114-4-87 153-88 188-35 5 8 8 18 10 28" id="aU"/><g id="Q"><use transform="matrix(0.08641975308641976,0,0,0.08641975308641976,0,0)" xlink:href="#aS"/><use transform="matrix(0.08641975308641976,0,0,0.08641975308641976,8.641975308641976,0)" xlink:href="#aM"/><use transform="matrix(0.08641975308641976,0,0,0.08641975308641976,31.024691358024693,0)" xlink:href="#aT"/><use transform="matrix(0.08641975308641976,0,0,0.08641975308641976,49.95061728395062,0)" xlink:href="#aO"/><use transform="matrix(0.08641975308641976,0,0,0.08641975308641976,70.69135802469137,0)" xlink:href="#aP"/><use transform="matrix(0.08641975308641976,0,0,0.08641975308641976,93.07407407407409,0)" xlink:href="#aO"/><use transform="matrix(0.08641975308641976,0,0,0.08641975308641976,113.81481481481485,0)" xlink:href="#aU"/><use transform="matrix(0.08641975308641976,0,0,0.08641975308641976,134.55555555555557,0)" xlink:href="#aU"/><use transform="matrix(0.08641975308641976,0,0,0.08641975308641976,155.2962962962963,0)" xlink:href="#aO"/><use transform="matrix(0.08641975308641976,0,0,0.08641975308641976,176.03703703703704,0)" xlink:href="#aQ"/><use transform="matrix(0.08641975308641976,0,0,0.08641975308641976,200.23456790123458,0)" xlink:href="#aP"/><use transform="matrix(0.08641975308641976,0,0,0.08641975308641976,222.61728395061732,0)" xlink:href="#aL"/><use transform="matrix(0.08641975308641976,0,0,0.08641975308641976,245,0)" xlink:href="#aR"/><use transform="matrix(0.08641975308641976,0,0,0.08641975308641976,265.74074074074076,0)" xlink:href="#aR"/><use transform="matrix(0.08641975308641976,0,0,0.08641975308641976,286.4814814814815,0)" xlink:href="#aO"/><use transform="matrix(0.08641975308641976,0,0,0.08641975308641976,307.2222222222223,0)" xlink:href="#aP"/></g><path d="M195 0l-88-114-31 24V0H24v-248h52v113l112-113h60L142-143 257 0h-62" id="aV"/><path d="M140-251c80 0 125 45 125 126S219 4 139 4C58 4 15-44 15-125s44-126 125-126zm-1 214c52 0 73-35 73-88 0-50-21-86-72-86-52 0-73 35-73 86s22 88 72 88" id="aW"/><path d="M230 0l2-204L168 0h-37L68-204 70 0H24v-248h70l56 185 57-185h69V0h-46" id="aX"/><g id="R"><use transform="matrix(0.08641975308641976,0,0,0.08641975308641976,0,0)" xlink:href="#aV"/><use transform="matrix(0.08641975308641976,0,0,0.08641975308641976,22.38271604938272,0)" xlink:href="#aW"/><use transform="matrix(0.08641975308641976,0,0,0.08641975308641976,46.580246913580254,0)" xlink:href="#aX"/><use transform="matrix(0.08641975308641976,0,0,0.08641975308641976,72.41975308641976,0)" xlink:href="#aS"/><use transform="matrix(0.08641975308641976,0,0,0.08641975308641976,81.06172839506173,0)" xlink:href="#aT"/><use transform="matrix(0.08641975308641976,0,0,0.08641975308641976,99.98765432098766,0)" xlink:href="#aO"/><use transform="matrix(0.08641975308641976,0,0,0.08641975308641976,120.7283950617284,0)" xlink:href="#aO"/><use transform="matrix(0.08641975308641976,0,0,0.08641975308641976,141.46913580246914,0)" xlink:href="#aP"/></g></defs></g></svg>