<?xml version="1.0" encoding="UTF-8" standalone="no"?>
<!-- Created with Inkscape (http://www.inkscape.org/) -->

<svg
   xmlns:dc="http://purl.org/dc/elements/1.1/"
   xmlns:cc="http://creativecommons.org/ns#"
   xmlns:rdf="http://www.w3.org/1999/02/22-rdf-syntax-ns#"
   xmlns:svg="http://www.w3.org/2000/svg"
   xmlns="http://www.w3.org/2000/svg"
   xmlns:sodipodi="http://sodipodi.sourceforge.net/DTD/sodipodi-0.dtd"
   xmlns:inkscape="http://www.inkscape.org/namespaces/inkscape"
   id="svg4136"
   version="1.1"
   inkscape:version="0.91 r13725"
   xml:space="preserve"
   width="487.62637"
   height="67.230591"
   viewBox="0 0 487.62637 67.230588"
   sodipodi:docname="Sopra Steria logo.svg"><metadata
     id="metadata4142"><rdf:RDF><cc:Work
         rdf:about=""><dc:format>image/svg+xml</dc:format><dc:type
           rdf:resource="http://purl.org/dc/dcmitype/StillImage" /><dc:h6></dc:h6></cc:Work></rdf:RDF></metadata><defs
     id="defs4140"><clipPath
       clipPathUnits="userSpaceOnUse"
       id="clipPath9064"><path
         d="m 0,858.898 612.283,0 L 612.283,0 0,0 0,858.898 Z"
         id="path9066"
         inkscape:connector-curvature="0" /></clipPath></defs><sodipodi:namedview
     pagecolor="#ffffff"
     bordercolor="#666666"
     borderopacity="1"
     objecttolerance="10"
     gridtolerance="10"
     guidetolerance="10"
     inkscape:pageopacity="0"
     inkscape:pageshadow="2"
     inkscape:window-width="1920"
     inkscape:window-height="1018"
     id="namedview4138"
     showgrid="false"
     fit-margin-bottom="3"
     fit-margin-left="3"
     fit-margin-top="3"
     fit-margin-right="3"
     inkscape:zoom="1"
     inkscape:cx="207.33846"
     inkscape:cy="-16.792468"
     inkscape:window-x="-8"
     inkscape:window-y="-8"
     inkscape:window-maximized="1"
     inkscape:current-layer="g4144" /><g
     id="g4144"
     inkscape:groupmode="layer"
     inkscape:label="sopra-steria-overview"
     transform="matrix(1.25,0,0,-1.25,-175.33837,418.5115)"><g
       id="g9060"
       transform="matrix(1.9216907,0,0,1.9216907,-538.89669,216.3214)"><g
         id="g9062"
         clip-path="url(#clipPath9064)"><g
           id="g9298"><g
             transform="translate(463.6973,39.6514)"
             id="g9068"><path
               inkscape:connector-curvature="0"
               id="path9070"
               style="fill:#f47216;fill-opacity:1;fill-rule:nonzero;stroke:none"
               d="m 0,0 c -0.165,-0.109 -0.365,-0.234 -0.547,-0.341 l -0.057,-0.031 0.057,-0.007 C 3.03,-1.36 6.574,-1.324 7.255,0.909 8.136,3.791 2.441,6.884 -0.246,8.358 -0.821,8.674 -1.072,8.477 -0.704,8.056 0.992,6.101 3.409,2.258 0,0" /></g><g
             transform="translate(494.5537,52.2939)"
             id="g9072"><path
               inkscape:connector-curvature="0"
               id="path9074"
               style="fill:#ffffff;fill-opacity:1;fill-rule:nonzero;stroke:none"
               d="m 0,0 -3.016,0 0,2.527 3.016,0 0,3.744 2.925,0 0,-3.744 4.808,0 0,-2.527 -4.808,0 0,-7.604 c 0,-1.902 0.53,-2.9 2.967,-2.9 0.93,0 1.977,0.268 1.977,0.268 l 0,-2.632 C 6.854,-13.006 6.115,-13.087 4.964,-13.087 0.357,-13.087 0,-9.769 0,-7.947 L 0,0 Z" /></g><path
             inkscape:connector-curvature="0"
             id="path9076"
             style="fill:#ffffff;fill-opacity:1;fill-rule:nonzero;stroke:none"
             d="m 536.387,39.17 -2.995,0 0,15.665 2.995,0 0,-15.665 z" /><g
             transform="translate(541.6758,47.1182)"
             id="g9078"><path
               inkscape:connector-curvature="0"
               id="path9080"
               style="fill:#ffffff;fill-opacity:1;fill-rule:nonzero;stroke:none"
               d="m 0,0 c 0,-4.267 3.516,-5.331 5.183,-5.331 3.179,0 5.422,1.797 5.422,5.393 0,3.594 -2.55,5.241 -5.453,5.241 C 3.506,5.303 0,4.335 0,0 m -3.044,0.031 c 0,5.89 4.763,7.892 8.069,7.892 3.758,0 5.58,-2.155 5.58,-2.155 l 0.155,1.948 2.736,0 0,-15.695 -2.739,0 -0.152,2.074 c 0,0 -1.874,-2.077 -5.611,-2.077 -3.752,0 -8.038,2.178 -8.038,8.013" /></g><g
             transform="translate(536.8486,58.4512)"
             id="g9082"><path
               inkscape:connector-curvature="0"
               id="path9084"
               style="fill:#ffffff;fill-opacity:1;fill-rule:nonzero;stroke:none"
               d="m 0,0 c 0,1.081 -0.876,1.958 -1.958,1.958 -1.081,0 -1.958,-0.877 -1.958,-1.958 0,-1.082 0.877,-1.958 1.958,-1.958 C -0.876,-1.958 0,-1.082 0,0" /></g><g
             transform="translate(531.2061,52.1416)"
             id="g9086"><path
               inkscape:connector-curvature="0"
               id="path9088"
               style="fill:#ffffff;fill-opacity:1;fill-rule:nonzero;stroke:none"
               d="M 0,0 0,2.653 C -2.957,2.923 -5.033,2.214 -6.65,0.525 l -0.156,2.161 -2.84,0 0,-15.678 2.996,0 0,8.123 c 0,2.266 1.826,5.14 6.65,4.869" /></g><g
             transform="translate(503.0068,47.0898)"
             id="g9090"><path
               inkscape:connector-curvature="0"
               id="path9092"
               style="fill:#ffffff;fill-opacity:1;fill-rule:nonzero;stroke:none"
               d="m 0,0 c 0,4.9 3.62,8.046 8.459,8.046 4.805,0 8.106,-3.511 8.106,-7.775 0,0 0,-0.667 -0.063,-1.271 L 3.115,-1.058 c 0.128,-2.419 2.921,-4.244 5.805,-4.244 3.103,0 4.943,1.923 4.943,1.923 l 2.144,-1.885 C 13.831,-7.351 11.461,-7.985 8.92,-7.985 3.641,-7.985 0,-4.901 0,-0.121 L 0,0 Z m 13.277,1.344 c 0,2.131 -2.144,3.905 -4.778,3.905 C 5.681,5.249 3.35,3.51 3.16,1.344 l 10.117,0 z" /></g><g
             transform="translate(485.127,48.5)"
             id="g9094"><path
               inkscape:connector-curvature="0"
               id="path9096"
               style="fill:#ffffff;fill-opacity:1;fill-rule:nonzero;stroke:none"
               d="m 0,0 c -3.014,0.539 -5.979,0.915 -5.979,2.32 0,0.916 0.91,1.721 3.548,1.721 1.962,0 4.225,-0.453 4.837,-1.842 l 2.779,1.167 c -1.063,2.135 -4.208,3.163 -7.823,3.163 -3.16,0 -6.552,-1.196 -6.552,-4.395 0,-2.77 2.522,-3.632 6.68,-4.415 2.779,-0.522 5.339,-0.786 5.339,-2.284 0,-0.945 -1.26,-2.158 -4.409,-2.158 -2.241,0 -4.501,0.47 -5.191,2.065 l -2.694,-1.131 c 1.105,-2.462 4.037,-3.736 7.435,-3.736 6.783,0 8.094,3.227 8.094,5.059 C 6.064,-1.415 3.029,-0.54 0,0" /></g><g
             transform="translate(398.8398,52.4209)"
             id="g9098"><path
               inkscape:connector-curvature="0"
               id="path9100"
               style="fill:#ffffff;fill-opacity:1;fill-rule:nonzero;stroke:none"
               d="m 0,0 c -2.904,0 -5.455,-1.647 -5.455,-5.241 0,-3.595 2.244,-5.393 5.423,-5.393 1.667,0 5.181,0.677 5.181,5.33 C 5.149,-0.648 1.645,0 0,0 m 0.156,-13.284 c -3.751,0 -5.611,2.384 -5.611,2.384 l 0,-6.602 -2.892,0 0,19.916 2.737,0 0.155,-1.948 c 0,0 1.819,2.153 5.579,2.153 3.307,0 8.068,-1.685 8.068,-7.89 0,-6.205 -4.283,-8.013 -8.036,-8.013" /></g><g
             transform="translate(421.3418,47.1182)"
             id="g9102"><path
               inkscape:connector-curvature="0"
               id="path9104"
               style="fill:#ffffff;fill-opacity:1;fill-rule:nonzero;stroke:none"
               d="m 0,0 c 0,-4.267 3.514,-5.331 5.183,-5.331 3.179,0 5.422,1.797 5.422,5.393 0,3.594 -2.55,5.241 -5.453,5.241 C 3.505,5.303 0,4.335 0,0 m -3.044,0.031 c 0,5.89 4.761,7.892 8.071,7.892 3.756,0 5.578,-2.155 5.578,-2.155 l 0.155,1.948 2.736,0 0,-15.695 -2.729,0 -0.162,2.074 c 0,0 -1.874,-2.077 -5.611,-2.077 -3.753,0 -8.038,2.178 -8.038,8.013" /></g><g
             transform="translate(418.5166,52.1416)"
             id="g9106"><path
               inkscape:connector-curvature="0"
               id="path9108"
               style="fill:#ffffff;fill-opacity:1;fill-rule:nonzero;stroke:none"
               d="M 0,0 0,2.653 C -2.956,2.923 -5.032,2.214 -6.65,0.525 l -0.155,2.161 -2.842,0 0,-15.678 2.997,0 0,8.123 c 0,2.266 1.827,5.14 6.65,4.869" /></g><g
             transform="translate(364.1367,48.5)"
             id="g9110"><path
               inkscape:connector-curvature="0"
               id="path9112"
               style="fill:#ffffff;fill-opacity:1;fill-rule:nonzero;stroke:none"
               d="m 0,0 c -3.016,0.539 -5.979,0.915 -5.979,2.32 0,0.916 0.909,1.721 3.547,1.721 1.962,0 4.223,-0.453 4.835,-1.842 l 2.783,1.167 c -1.065,2.135 -4.211,3.163 -7.825,3.163 -3.16,0 -6.552,-1.196 -6.552,-4.395 0,-2.77 2.52,-3.632 6.68,-4.415 2.777,-0.522 5.341,-0.786 5.341,-2.284 0,-0.945 -1.262,-2.158 -4.411,-2.158 -2.239,0 -4.501,0.47 -5.191,2.065 l -2.694,-1.131 c 1.105,-2.462 4.037,-3.736 7.435,-3.736 6.783,0 8.095,3.227 8.095,5.059 C 6.064,-1.415 3.028,-0.54 0,0" /></g><g
             transform="translate(380.1465,55.041)"
             id="g9114"><path
               inkscape:connector-curvature="0"
               id="path9116"
               style="fill:#ffffff;fill-opacity:1;fill-rule:nonzero;stroke:none"
               d="m 0,0 c -4.006,0 -8.748,-2.002 -8.748,-7.892 0,-5.835 4.266,-8.101 8.748,-8.101 4.481,0 8.746,2.266 8.746,8.101 C 8.746,-2.002 4.005,0 0,0 m 0,-13.254 c -2.462,0 -5.704,1.065 -5.704,5.331 0,4.335 3.596,5.216 5.704,5.216 2.107,0 5.704,-0.881 5.704,-5.216 0,-4.266 -3.243,-5.331 -5.704,-5.331" /></g><g
             transform="translate(463.0977,39.2803)"
             id="g9118"><path
               inkscape:connector-curvature="0"
               id="path9120"
               style="fill:#db1d2b;fill-opacity:1;fill-rule:nonzero;stroke:none"
               d="m 0,0 c 0,0 -4.508,-2.831 -12.459,-2.831 -3.081,0 -5.676,0.471 -6.773,1.55 -1.156,1.136 -1.782,3.051 -1.782,4.812 0,1.509 0.626,2.777 1.931,2.777 C -15.729,6.308 -5.283,0.994 0,0" /></g><g
             transform="translate(448.0791,55.7051)"
             id="g9122"><path
               inkscape:connector-curvature="0"
               id="path9124"
               style="fill:#f47216;fill-opacity:1;fill-rule:nonzero;stroke:none"
               d="M 0,0 C 0.165,0.109 0.365,0.233 0.547,0.34 L 0.604,0.372 0.547,0.378 C -3.03,1.36 -6.574,1.323 -7.255,-0.909 -8.136,-3.792 -2.441,-6.885 0.246,-8.359 0.821,-8.675 1.07,-8.478 0.704,-8.057 -0.991,-6.102 -3.409,-2.258 0,0" /></g><g
             transform="translate(448.6787,56.0752)"
             id="g9126"><path
               inkscape:connector-curvature="0"
               id="path9128"
               style="fill:#db1d2b;fill-opacity:1;fill-rule:nonzero;stroke:none"
               d="m 0,0 c 0,0 4.508,2.831 12.461,2.831 3.081,0 5.674,-0.471 6.771,-1.55 1.156,-1.136 1.782,-3.051 1.782,-4.812 0,-1.508 -0.626,-2.777 -1.931,-2.777 C 15.729,-6.308 5.283,-0.994 0,0" /></g></g></g></g></g></svg>