<?xml version="1.0" encoding="UTF-8" standalone="no"?>
<!-- Generator: Adobe Illustrator 22.1.0, SVG Export Plug-In . SVG Version: 6.00 Build 0)  -->

<svg
   xmlns:dc="http://purl.org/dc/elements/1.1/"
   xmlns:cc="http://creativecommons.org/ns#"
   xmlns:rdf="http://www.w3.org/1999/02/22-rdf-syntax-ns#"
   xmlns:svg="http://www.w3.org/2000/svg"
   xmlns="http://www.w3.org/2000/svg"
   xmlns:sodipodi="http://sodipodi.sourceforge.net/DTD/sodipodi-0.dtd"
   xmlns:inkscape="http://www.inkscape.org/namespaces/inkscape"
   version="1.1"
   viewBox="-30 -35 902.1672 282.95244"
   xml:space="preserve"
   id="svg3869"
   sodipodi:docname="logo_main_green.svg"
   width="220"
   height="69"
   inkscape:version="0.92.4 (5da689c313, 2019-01-14)"><metadata
   id="metadata3875"><rdf:RDF><cc:Work
       rdf:about=""><dc:format>image/svg+xml</dc:format><dc:type
         rdf:resource="http://purl.org/dc/dcmitype/StillImage" /><dc:title></dc:title></cc:Work></rdf:RDF></metadata><defs
   id="defs3873" /><sodipodi:namedview
   pagecolor="#ffffff"
   bordercolor="#666666"
   borderopacity="1"
   objecttolerance="10"
   gridtolerance="10"
   guidetolerance="10"
   inkscape:pageopacity="0"
   inkscape:pageshadow="2"
   inkscape:window-width="1920"
   inkscape:window-height="1001"
   id="namedview3871"
   showgrid="false"
   fit-margin-top="-2.7755576e-17"
   fit-margin-left="0"
   fit-margin-right="0"
   fit-margin-bottom="0.1"
   scale-x="4.10076"
   inkscape:zoom="2.0029589"
   inkscape:cx="413.55001"
   inkscape:cy="-47.602857"
   inkscape:window-x="-9"
   inkscape:window-y="-9"
   inkscape:window-maximized="1"
   inkscape:current-layer="svg3869"
   viewbox-x="-70"
   viewbox-width="864"
   viewbox-y="-35"
   units="in" />
<style
   type="text/css"
   id="style3795">
	.st0{fill:#05D48E;}
</style>
<g
   id="g3813"
   transform="translate(-25.8,-26.424995)">
	<g
   id="g3799">
		<path
   class="st0"
   d="M 101.9,20.8 51.1,172 h 77.1 l 3.6,10.6 H 47.6 L 25.8,247.5 H 38.3 L 56,194.6 h 79.7 l 17.7,52.9 H 166 l -63.8,-190.3 6,-17.8 69.8,208.1 h 12.5 L 114.4,20.8 Z M 124.2,160 H 67.7 L 96,75.8 Z"
   id="path3797"
   inkscape:connector-curvature="0"
   style="fill:#05d48e" />
	</g>
	<g
   id="g3803">
		<polygon
   class="st0"
   points="344.1,192.4 308.2,85.4 295.7,85.4 337.8,211.1 331.8,228.8 283.7,85.4 271.2,85.4 235.3,192.5 177.6,20.8 165.1,20.8 229,211.1 223,228.8 153.2,20.8 140.7,20.8 216.8,247.5 229.3,247.5 277.5,104 283.4,121.7 241.2,247.5 253.7,247.5 289.7,140.3 325.6,247.5 338.1,247.5 414.2,20.8 401.7,20.8 355.3,158.8 330.8,85.4 318.3,85.4 349.1,177.4 "
   id="polygon3801"
   style="fill:#05d48e" />
	</g>
	<g
   id="g3807">
		<polygon
   class="st0"
   points="362.5,247.5 438.6,20.8 426.1,20.8 350,247.5 "
   id="polygon3805"
   style="fill:#05d48e" />
	</g>
	<g
   id="g3811">
		<polygon
   class="st0"
   points="386.9,247.5 463,20.8 450.5,20.8 374.4,247.5 "
   id="polygon3809"
   style="fill:#05d48e" />
	</g>
</g>
<g
   id="g3867"
   transform="translate(-25.8,-26.424995)">
	<g
   id="g3817">
		<path
   class="st0"
   d="m 531.3,65.4 h -9.1 l -22,60.3 h 9 l 5.7,-15.8 h 23.4 l 5.7,15.7 h 9.2 z m -13.2,35.9 8.6,-23.6 8.5,23.6 z"
   id="path3815"
   inkscape:connector-curvature="0"
   style="fill:#05d48e" />
	</g>
	<g
   id="g3821">
		<path
   class="st0"
   d="m 574.7,80.7 c -12.9,0 -21,8.9 -21,23.3 0,14.1 8,22.9 21,22.9 7.9,0 13.9,-3.6 17.3,-11.1 l -7.8,-3.9 c -1.3,2.5 -4,5.9 -9.3,5.9 -7.4,0 -11.7,-5.1 -11.7,-13.9 0,-9 4.1,-14 11.7,-14 4.7,0 7.8,2 10.4,7.7 l 7.4,-5 c -3.6,-8.2 -9.6,-11.9 -18,-11.9 z"
   id="path3819"
   inkscape:connector-curvature="0"
   style="fill:#05d48e" />
	</g>
	<g
   id="g3825">
		<path
   class="st0"
   d="m 616.8,80.6 c -8.5,0 -14.5,3.8 -18,12.2 l 7.7,3.6 c 2.3,-5 5.1,-6.6 9.8,-6.6 4.4,0 7.4,2 7.4,4.9 0,1.9 -3.5,2.5 -7.6,3.3 -7.6,1.4 -18.1,3.4 -18.1,14.9 0,6.9 4.5,13.9 14.7,13.9 5,0 9.3,-1.7 12.6,-5 1.4,3.3 4.3,4.8 8,5 l 4.8,-7.5 c -3.9,-0.6 -5.3,-2.7 -5.3,-5.8 V 96.9 c 0,-10.5 -5.7,-16.3 -16,-16.3 z m -2.7,37.1 c -4.1,0 -6.6,-2.2 -6.6,-5.8 0,-3.3 3.6,-4.5 11.2,-6 2.3,-0.4 4.8,-1.1 5,-1.1 0,0 0,6.4 0,6.4 0,3.1 -5.1,6.5 -9.6,6.5 z"
   id="path3823"
   inkscape:connector-curvature="0"
   style="fill:#05d48e" />
	</g>
	<g
   id="g3829">
		<path
   class="st0"
   d="m 680,65.6 h -9.1 v 19.6 c -3.2,-2.9 -7.3,-4.5 -11.7,-4.5 -11.5,0 -19.6,9.5 -19.6,23.1 0,14.5 9.8,23.2 19.3,23.2 4.2,0 8.5,-1.8 11.9,-5 v 3.9 h 9.1 V 65.6 Z m -20.3,52.5 c -6.1,0 -10.5,-6.1 -10.5,-14.5 0,-8.3 4.5,-14.1 10.8,-14.1 6.6,0 10.9,4.8 10.9,12.2 v 4 c -0.1,7.3 -4.7,12.4 -11.2,12.4 z"
   id="path3827"
   inkscape:connector-curvature="0"
   style="fill:#05d48e" />
	</g>
	<g
   id="g3833">
		<path
   class="st0"
   d="m 708,80.6 c -12.6,0 -21,9.2 -21,23 0,13.9 8.7,23.3 21.7,23.3 6.6,0 13.7,-2.9 17.3,-7.4 l -5.4,-6.6 c -3.6,3.2 -7.8,4.9 -11.6,4.9 -6.8,0 -11.7,-4.2 -12.2,-10.5 h 29.5 c 0,0 0.6,-1.8 0.6,-5.8 C 726.8,89 719.2,80.6 708,80.6 Z m -11,17.9 c 0.4,-3.7 4.3,-8.7 10.6,-8.7 5.7,0 9.4,3.4 9.5,8.7 z"
   id="path3831"
   inkscape:connector-curvature="0"
   style="fill:#05d48e" />
	</g>
	<g
   id="g3837">
		<path
   class="st0"
   d="m 777.8,80.6 c -5.8,0 -10.5,3.2 -12.7,6.4 -2.6,-4 -7.1,-6.4 -12.1,-6.4 -4.5,0 -8.6,1.8 -11,4.7 l -0.7,-3.6 h -8.1 v 44 h 9.1 V 99.2 c 0,-6.6 2.6,-9.7 8.1,-9.7 5.6,0 8.2,3 8.2,9.5 v 26.8 h 9.1 V 99.2 c 0,-6 3.2,-9.7 8.2,-9.7 5.6,0 8.2,2.9 8.2,9.5 v 26.8 h 9.1 v -27 C 793.3,82.4 782.5,80.6 777.8,80.6 Z"
   id="path3835"
   inkscape:connector-curvature="0"
   style="fill:#05d48e" />
	</g>
	<g
   id="g3841">
		<path
   class="st0"
   d="m 806.6,65.3 v 0 c -3.2,0 -5.9,2.6 -5.9,5.9 0,3.2 2.6,5.8 5.9,5.8 3.2,0 5.8,-2.6 5.8,-5.8 -0.1,-3.2 -2.6,-5.8 -5.8,-5.9 z"
   id="path3839"
   inkscape:connector-curvature="0"
   style="fill:#05d48e" />
	</g>
	<g
   id="g3845">
		<path
   class="st0"
   d="m 811,81.7 h -9.1 v 44 h 9.1 z"
   id="path3843"
   inkscape:connector-curvature="0"
   style="fill:#05d48e" />
	</g>
	<g
   id="g3849">
		<path
   class="st0"
   d="m 573.2,142.4 h -9.6 l -11.1,46.4 c 0,0 0,0 0,0 0,0 -0.1,-0.1 -0.1,-0.2 L 541.6,159 h -9.2 L 522,188.7 c 0,0.1 -0.1,0.1 -0.1,0.1 0,0 -0.1,-0.1 -0.1,-0.2 l -11.4,-46.2 h -9.5 l 15.9,60.3 h 8.4 l 11.8,-30.9 11.9,30.9 h 8.4 z"
   id="path3847"
   inkscape:connector-curvature="0"
   style="fill:#05d48e" />
	</g>
	<g
   id="g3853">
		<path
   class="st0"
   d="m 592.6,157.7 c -10.5,0 -21.8,7.4 -21.8,23.5 0,13.3 9,22.6 21.8,22.6 10.6,0 22,-7.2 22,-23 -0.1,-15.9 -11.1,-23.1 -22,-23.1 z m 0,37.1 c -7.6,0 -12.3,-5.3 -12.3,-13.8 0,-7 3.8,-14.1 12.3,-14.1 7.8,0 12.5,5.4 12.5,14.3 0,8.5 -4.7,13.6 -12.5,13.6 z"
   id="path3851"
   inkscape:connector-curvature="0"
   style="fill:#05d48e" />
	</g>
	<g
   id="g3857">
		<path
   class="st0"
   d="m 643.3,157.6 c -6.2,-0.1 -9.8,1.6 -12.9,5.4 l -0.5,-4.3 h -8.8 v 44 h 9.1 V 178 c 0,-7.4 3.8,-10.8 13.1,-10.6 z"
   id="path3855"
   inkscape:connector-curvature="0"
   style="fill:#05d48e" />
	</g>
	<g
   id="g3861">
		<path
   class="st0"
   d="m 659.3,142.6 h -9.1 v 60.2 h 9.1 v -18.7 l 16.6,18.7 h 11.6 L 666,178.2 685.7,158.7 H 673.8 L 659.4,173 c 0,0 -0.1,0.1 -0.1,0.1 z"
   id="path3859"
   inkscape:connector-curvature="0"
   style="fill:#05d48e" />
	</g>
	<g
   id="g3865">
		<path
   class="st0"
   d="m 838.6,80.7 c -12.9,0 -21,8.9 -21,23.3 0,14.1 8,22.9 21,22.9 7.9,0 13.9,-3.6 17.3,-11.1 l -7.8,-3.9 c -1.3,2.5 -4,5.9 -9.3,5.9 -7.4,0 -11.7,-5.1 -11.7,-13.9 0,-9 4.1,-14 11.7,-14 4.7,0 7.8,2 10.4,7.7 l 7.4,-5 C 853,84.4 847,80.7 838.6,80.7 Z"
   id="path3863"
   inkscape:connector-curvature="0"
   style="fill:#05d48e" />
	</g>
</g>
</svg>