<svg id="Layer_1" data-name="Layer 1" xmlns="http://www.w3.org/2000/svg" viewBox="0 0 439.47 128.82"
    style="fill-rule:evenodd;clip-rule:evenodd;stroke-linejoin:round;stroke-miterlimit:2;">
    <path class="cls-1" d="M98.93,337" transform="translate(-95.36 -284.8)"
        style="fill:currentColor;fill-rule:nonzero;" />
    <path class="cls-2" d="M251.38,327H236.77V312.29h47.55V327H269.7v57.42H251.38Z"
        transform="translate(-95.36 -284.8)" style="fill:currentColor;fill-rule:nonzero;" />
    <path class="cls-2" d="M290.07,312.29h18.31v72.09H290.07Z" transform="translate(-95.36 -284.8)"
        style="fill:currentColor;fill-rule:nonzero;" />
    <path class="cls-2"
        d="M351.35,355.05H337.13v29.33H318.81V312.29h18.32V340h14.22V312.29h18.32v72.09H351.35Z"
        transform="translate(-95.36 -284.8)" style="fill:currentColor;fill-rule:nonzero;" />
    <path class="cls-2" d="M380.1,312.29h18.31v57.42h22.41v14.67H380.1Z"
        transform="translate(-95.36 -284.8)" style="fill:currentColor;fill-rule:nonzero;" />
    <path class="cls-2"
        d="M427,312.29h26.21a32.9,32.9,0,0,1,13.3,2.53,26.77,26.77,0,0,1,9.8,7.23,31.89,31.89,0,0,1,6,11.26,49,49,0,0,1,2,14.61,51.51,51.51,0,0,1-2.29,16.27,29.44,29.44,0,0,1-6.62,11.36,26.38,26.38,0,0,1-10.67,6.66,44.32,44.32,0,0,1-14.42,2.17H427Zm18.32,58.25h4q7.89,0,11.83-5.68t3.95-16.22a36.08,36.08,0,0,0-1.46-11.25,16.41,16.41,0,0,0-4-6.72,13.14,13.14,0,0,0-5.84-3.25,28.12,28.12,0,0,0-7.07-.88h-1.46Z"
        transform="translate(-95.36 -284.8)" style="fill:currentColor;fill-rule:nonzero;" />
    <path class="cls-2"
        d="M491.86,312.29h41.7v14.25H509.78v13.84h22.61v14.26H509.78v15.49h25.05v14.25h-43Z"
        transform="translate(-95.36 -284.8)" style="fill:currentColor;fill-rule:nonzero;" />
    <path class="cls-2"
        d="M197.71,347.7c-1.32,0-2.57-.07-3.76-.13-11.67-.61-17.36-3-23-5.91l-.25-.13c-1.12-.58-2.23-1.12-3.32-1.62a65.14,65.14,0,0,0-16.65-5.09c-2.13-.35-4.14-.57-6-.71-1.37-.11-2.68-.17-3.91-.2a53.15,53.15,0,0,0-11.55.92c-1.29.25-2.55.54-3.76.87a53.61,53.61,0,0,0-27.14,17.44s18.82-3.39,25.1-3.37l2,0c1.32,0,2.57.07,3.76.13,11.32.59,17,2.84,22.49,5.64l.78.4c.93.48,1.86.94,2.77,1.37a65,65,0,0,0,18.13,5.49c2.1.31,4.08.51,5.94.63,1.07.06,2.09.11,3.07.13a52.35,52.35,0,0,0,11.53-.92c1.3-.25,2.55-.54,3.76-.87a53.61,53.61,0,0,0,27.15-17.44s-18.82,3.39-25.1,3.37Z"
        transform="translate(-95.36 -284.8)" style="fill:currentColor;fill-rule:nonzero;" />
    <path class="cls-2"
        d="M195.72,284.8c-14.3,0-26.45,11.42-30.88,27.31h-6.12a38.15,38.15,0,0,0-4-11.7,31.3,31.3,0,0,0-4.57-6.36q-8.83-9.49-23.09-9.24-13.35.24-21.65,9.86a30.94,30.94,0,0,0-4.36,6.58,34.73,34.73,0,0,0,.41,31.88,52.9,52.9,0,0,1,12-9.65c1.29-.76,2.56-1.43,3.79-2a13.67,13.67,0,0,1-.73-9.6c1.18-3.7,4.52-9.11,11.09-9.1a13.7,13.7,0,0,1,12.71,9.35H136a8.78,8.78,0,1,0-11.19,10.21c.21.07.43.13.65.18V333c1.12-.29,2.2-.53,3.28-.73.22,0,.44-.08.67-.12v-9.59a8.47,8.47,0,0,0,2.72-1.13l6.92,6.92a20.08,20.08,0,0,1-2.42,3c1.4-.07,2.8-.08,4.21,0l1.24,0,1.24.06.3,0,1.19.08h.06l1.55.13,1.28.14c1.16.13,2.3.29,3.43.47,1.46.24,2.89.53,4.31.85a22.75,22.75,0,0,0,2.56-5.34,26.72,26.72,0,0,0,1.24-8.23c0-1.24,0-2.43-.08-3.58h4.76a50.1,50.1,0,0,0-.9,9.43,49.59,49.59,0,0,0,1.07,10.24c1.52.58,3,1.2,4.56,1.9,1.22.56,2.34,1.11,3.44,1.68l.16.09.08,0a42.66,42.66,0,0,0,14.46,4.88,22,22,0,0,1-7-11.37l11.43-11.43a8.35,8.35,0,0,0,2.71,1.14V345h.14c1.14.06,2.34.11,3.68.13h0V322.56a8.75,8.75,0,1,0-10.46-10.45h-5.15c3.08-5.4,8-8.9,13.54-8.9,9.34,0,16.9,9.92,16.9,22.16,0,8.41-3.58,15.73-8.85,19.48,7.72-.74,20.67-3.07,20.83-3.1l1.08-.2a48.86,48.86,0,0,0,2.72-16.18C228.4,303,213.77,284.8,195.72,284.8Zm-54.14,35.36a14.31,14.31,0,0,1-.73,4.54l-6-6a8.65,8.65,0,0,0,1.16-2.8h5.22A26.24,26.24,0,0,1,141.58,320.16Zm45.77-4.22a8.55,8.55,0,0,0,1.14,2.73L179,328.2c-.09-.93-.14-1.87-.14-2.83a27.89,27.89,0,0,1,1.61-9.43Z"
        transform="translate(-95.36 -284.8)" style="fill:currentColor;fill-rule:nonzero;" />
    <path class="cls-2"
        d="M197.79,373.93v-9.46c-1.1.28-2.22.54-3.35.76l-.49.08V374l-.68.19a8.3,8.3,0,0,0-2.05.94l-8.88-8.89c-1.09,0-2.12-.07-3.15-.14s-1.78-.13-2.64-.21l11.94,11.94a8.47,8.47,0,0,0-1.15,2.77h-26.4a60.8,60.8,0,0,0,.33-8.75,62,62,0,0,0-1.12-9.68q-3-1.06-5.89-2.43c-.92-.43-1.86-.89-2.87-1.42l-.68-.34-.08,0c-4.38-2.25-9.13-4.33-18.34-5.14q7.4,2.52,9.4,12.73L132.13,375a8.42,8.42,0,0,0-2.7-1.11V352.55l-.32,0c-1.14-.06-2.37-.1-3.63-.13V374A8.7,8.7,0,1,0,136,384.34h4c-2.18,4.84-6.25,9.17-13.82,9-10.66-.2-17.81-16-12.86-29.86a14,14,0,0,1,2.12-3.81,13.78,13.78,0,0,1,5.83-4.29,35.23,35.23,0,0,0-13.08,5.66A46.28,46.28,0,0,0,95.36,375a48.43,48.43,0,0,0,4.87,20.93,36.13,36.13,0,0,0,5.17,7.62A28.82,28.82,0,0,0,129,413.61q15.19-.54,24-12a36.09,36.09,0,0,0,4.63-7.89,45.54,45.54,0,0,0,2.69-9.42h26.94a8.74,8.74,0,1,0,10.46-10.41ZM136,380.55a8.65,8.65,0,0,0-1.16-2.8l7.43-7.43c0,.57.08,1.15.1,1.75a32.12,32.12,0,0,1-1.08,8.48Z"
        transform="translate(-95.36 -284.8)" style="fill:currentColor;fill-rule:nonzero;" />
</svg>