<?xml version="1.0" encoding="UTF-8" standalone="no"?>
<svg width="100%" height="100%" viewBox="0 0 1062 1028" version="1.1"
    xmlns="http://www.w3.org/2000/svg" xmlns:xlink="http://www.w3.org/1999/xlink"
    xml:space="preserve" xmlns:serif="http://www.serif.com/"
    style="fill-rule:evenodd;clip-rule:evenodd;stroke-linejoin:round;stroke-miterlimit:2;">
    <g transform="matrix(1,0,0,1,-620.775,-1546.66)">
        <g id="Layer-1" serif:id="Layer 1" transform="matrix(4.16667,0,0,4.16667,0,0)">
            <g transform="matrix(1,0,0,1,344.946,495.608)">
                <path d="M0,-3.986C-2.53,-4.039 -4.924,-4.123 -7.202,-4.245C-29.557,-5.419 -40.448,-9.946 -51.248,-15.556C-51.408,-15.632 -51.568,-15.716 -51.728,-15.799C-53.869,-16.92 -55.988,-17.949 -58.077,-18.909C-69.638,-24.191 -80.37,-27.079 -89.95,-28.649C-94.02,-29.32 -97.877,-29.747 -101.505,-30.021C-104.126,-30.22 -106.619,-30.334 -108.989,-30.402C-116.908,-30.624 -124.278,-29.945 -131.092,-28.627C-133.569,-28.162 -135.969,-27.598 -138.294,-26.973C-172.225,-17.796 -190.258,6.425 -190.258,6.425C-190.258,6.425 -154.223,-0.076 -142.204,-0.03C-140.863,-0.023 -139.559,-0.015 -138.294,0.008C-135.764,0.061 -133.37,0.145 -131.092,0.259C-109.423,1.395 -98.517,5.686 -88.037,11.051C-87.542,11.303 -87.046,11.554 -86.551,11.814C-84.76,12.743 -82.992,13.62 -81.239,14.435C-68.541,20.38 -56.834,23.414 -46.53,24.953C-42.513,25.555 -38.718,25.921 -35.151,26.15C-33.116,26.279 -31.165,26.363 -29.29,26.417C-21.379,26.638 -14.008,25.959 -7.202,24.648C-4.725,24.176 -2.325,23.62 0,22.987C33.939,13.818 51.972,-10.411 51.972,-10.411C51.972,-10.411 15.937,-3.91 3.925,-3.948C2.584,-3.955 1.273,-3.971 0,-3.986" style="fill:currentColor;fill-rule:nonzero;storke:none"/>
            </g>
            <g transform="matrix(1,0,0,1,325.098,426.71)">
                <path d="M0,4.097C0.432,5.979 1.177,7.739 2.196,9.323L-16.055,27.574C-16.228,25.798 -16.322,23.988 -16.322,22.15C-16.322,15.693 -15.216,9.576 -13.247,4.097L0,4.097ZM-87.619,12.173C-87.622,15.38 -88.162,18.278 -89.026,20.879L-100.452,9.454C-99.409,7.833 -98.648,6.03 -98.222,4.097L-88.227,4.097C-87.837,6.566 -87.616,9.244 -87.619,12.173M16.034,-55.511C-11.355,-55.511 -34.617,-33.657 -43.093,-3.237L-54.807,-3.237C-56.845,-15.123 -61.215,-23.367 -62.453,-25.641C-64.867,-30.08 -67.784,-34.136 -71.204,-37.811C-82.472,-49.921 -97.206,-55.817 -115.406,-55.499C-132.436,-55.202 -146.253,-48.913 -156.86,-36.632C-160.17,-32.801 -162.946,-28.6 -165.189,-24.03C-167.033,-20.273 -172.39,-9.214 -172.217,6.469C-172.049,21.615 -166.834,32.548 -164.409,37.016C-158.771,30.93 -151.269,24.266 -141.53,18.539C-139.06,17.086 -136.633,15.803 -134.273,14.668C-135.259,12.505 -138.422,4.948 -135.667,-3.717C-133.419,-10.791 -127.023,-21.16 -114.438,-21.133C-106.828,-21.116 -95.163,-16.892 -90.106,-3.237L-98.263,-3.237C-99.434,-8.329 -102.94,-12.531 -107.596,-14.651C-109.788,-15.712 -112.243,-16.316 -114.842,-16.316C-124.049,-16.316 -131.518,-8.847 -131.518,0.36C-131.518,7.883 -126.533,14.234 -119.689,16.31C-119.282,16.444 -118.867,16.559 -118.447,16.662L-118.447,36.761C-116.294,36.209 -114.225,35.744 -112.165,35.358C-111.743,35.276 -111.316,35.207 -110.891,35.13L-110.891,16.766C-109.013,16.352 -107.26,15.616 -105.675,14.618L-92.435,27.858C-93.929,30.137 -95.571,32.044 -97.062,33.579C-94.388,33.456 -91.699,33.423 -89.002,33.498C-88.191,33.522 -87.405,33.551 -86.63,33.583C-85.821,33.617 -85.033,33.657 -84.255,33.7C-84.063,33.711 -83.871,33.722 -83.68,33.733C-82.908,33.779 -82.146,33.828 -81.394,33.885C-81.357,33.887 -81.318,33.89 -81.28,33.892C-80.278,33.968 -79.292,34.054 -78.315,34.147C-77.491,34.227 -76.679,34.316 -75.869,34.408C-73.647,34.66 -71.464,34.958 -69.291,35.315C-66.506,35.772 -63.763,36.316 -61.048,36.941C-59.32,34.286 -57.527,30.906 -56.148,26.708C-54.046,20.312 -53.871,15.011 -53.768,10.951C-53.708,8.585 -53.768,6.297 -53.922,4.097L-44.814,4.097C-45.926,9.893 -46.531,15.932 -46.531,22.15C-46.531,28.931 -45.815,35.5 -44.495,41.767C-41.574,42.863 -38.667,44.062 -35.766,45.387C-33.431,46.46 -31.28,47.514 -29.178,48.614C-29.069,48.67 -28.966,48.726 -28.862,48.776L-28.711,48.851C-21.182,52.761 -13.621,56.218 -1.032,58.183C-7.188,53.161 -11.954,45.5 -14.432,36.413L7.445,14.537C9.016,15.552 10.77,16.294 12.645,16.719L12.645,59.645C12.734,59.65 12.82,59.656 12.909,59.661C15.092,59.777 17.395,59.86 19.955,59.914L19.985,59.914L19.985,16.766C27.449,15.123 33.042,8.465 33.042,0.505C33.042,-3.517 31.614,-7.208 29.237,-10.086C26.18,-13.882 21.501,-16.316 16.25,-16.316C8.278,-16.316 1.609,-10.714 -0.037,-3.237L-9.888,-3.237C-3.987,-13.575 5.427,-20.265 16.034,-20.265C33.903,-20.265 48.389,-1.275 48.389,22.15C48.389,38.263 41.536,52.276 31.443,59.456C46.219,58.022 71.019,53.566 71.316,53.512L73.382,53.14C76.719,43.642 78.599,33.174 78.599,22.15C78.599,-20.741 50.588,-55.511 16.034,-55.511"  style="fill:currentColor;fill-rule:nonzero;storke:none"/>
            </g>
            <g transform="matrix(1,0,0,1,226.876,564.545)">
                <path d="M0,-10.045C-0.426,-11.978 -1.187,-13.781 -2.229,-15.402L12.002,-29.634C12.079,-28.534 12.143,-27.418 12.183,-26.267C12.266,-23.9 12.062,-17.28 10.124,-10.045L0,-10.045ZM118.207,-22.714L118.207,-40.829C116.11,-40.286 113.969,-39.789 111.806,-39.377C111.494,-39.317 111.18,-39.265 110.867,-39.208L110.867,-22.667C110.423,-22.566 109.984,-22.452 109.555,-22.316C108.161,-21.889 106.848,-21.279 105.639,-20.513L88.63,-37.523C86.547,-37.581 84.576,-37.671 82.602,-37.797C80.875,-37.907 79.203,-38.049 77.554,-38.211L100.418,-15.347C99.386,-13.741 98.631,-11.956 98.202,-10.045L47.656,-10.045C48.224,-15.1 48.513,-20.707 48.296,-26.8C48.138,-31.247 47.652,-37.655 46.147,-45.321C42.367,-46.69 38.616,-48.224 34.88,-49.973C33.121,-50.792 31.319,-51.68 29.384,-52.685C28.937,-52.92 28.509,-53.136 28.081,-53.354L27.935,-53.428C19.532,-57.731 10.45,-61.706 -7.18,-63.269C2.254,-60.04 8.239,-51.902 10.802,-38.896L-7.5,-20.594C-9.073,-21.577 -10.809,-22.304 -12.669,-22.714L-12.669,-63.649C-12.875,-63.66 -13.074,-63.673 -13.282,-63.684C-15.465,-63.794 -17.804,-63.876 -20.224,-63.928L-20.224,-22.663C-27.701,-21.017 -33.295,-14.356 -33.295,-6.384C-33.295,2.823 -25.826,10.293 -16.619,10.293C-15.052,10.293 -13.537,10.069 -12.099,9.664C-6.087,8.114 -1.389,3.294 -0.02,-2.786L7.567,-2.786C3.407,6.477 -4.383,14.778 -18.881,14.509C-39.287,14.13 -52.984,-16.188 -43.495,-42.671C-41.983,-46.891 -39.437,-49.965 -39.437,-49.965C-35.305,-55.194 -30.229,-57.42 -28.289,-58.172C-34.56,-56.895 -43.593,-54.073 -53.33,-47.336C-65.672,-38.797 -73.552,-27.84 -77.89,-20.755C-77.799,-12.932 -76.699,3.241 -68.562,19.305C-65.85,24.66 -62.551,29.525 -58.666,33.9C-46.649,47.433 -31.569,53.883 -13.42,53.249C5.977,52.572 21.316,44.938 32.601,30.349C36.154,25.755 39.106,20.72 41.459,15.243C42.859,11.984 45.064,5.735 46.605,-2.786L98.185,-2.786C99.831,4.691 106.5,10.293 114.472,10.293C117.972,10.293 121.218,9.209 123.901,7.365C128.341,4.374 131.264,-0.699 131.264,-6.454C131.264,-14.413 125.672,-21.071 118.207,-22.714"  style="fill:currentColor;fill-rule:nonzero;storke:none"/>
            </g>
        </g>
    </g>
</svg>