<?xml version="1.0" encoding="utf-8"?>
<!-- Generator: Adobe Illustrator 16.0.0, SVG Export Plug-In . SVG Version: 6.00 Build 0)  -->
<!DOCTYPE svg PUBLIC "-//W3C//DTD SVG 1.1//EN" "http://www.w3.org/Graphics/SVG/1.1/DTD/svg11.dtd">
<svg version="1.1" id="Layer_1" xmlns="http://www.w3.org/2000/svg" xmlns:xlink="http://www.w3.org/1999/xlink" x="0px" y="0px"
viewBox="0 0 70.491 28.056" xml:space="preserve">
<g>
	<path fill="#FFFFFF" d="M38.473,13.349c0.006,1.764,1.556,2.189,4.7,2.825c4.607,0.889,6.849,2.001,6.859,5.357
		c0.012,3.873-2.733,6.507-7.08,6.521l-1.291,0.004c-4.26,0.014-7.022-2.603-7.028-4.324c0-0.086,0.085-0.215,0.257-0.302
		l2.492-1.256c0.086-0.043,0.172-0.087,0.215-0.087c0.129,0,0.215,0.129,0.345,0.258c1.037,1.33,1.815,2.403,3.708,2.397
		l1.291-0.004c1.979-0.007,3.267-1.13,3.263-2.507c-0.006-1.85-1.9-2.06-5.474-2.779c-4.091-0.805-6.031-2.046-6.042-5.273
		c-0.012-3.744,2.777-6.334,6.908-6.348l1.291-0.004c4.26-0.014,7.023,2.603,7.028,4.324c0,0.129-0.085,0.215-0.257,0.302
		l-2.492,1.256c-0.086,0.043-0.215,0.086-0.258,0.087c-0.129,0-0.172-0.129-0.302-0.257c-1.08-1.374-1.858-2.404-3.708-2.398
		l-1.291,0.004C39.585,11.151,38.469,11.972,38.473,13.349z"/>
	<path fill="#FFFFFF" d="M54.797,4.776c-1.334,0.004-2.37-0.982-2.374-2.359c-0.004-1.334,1.025-2.37,2.359-2.374
		c1.334-0.004,2.37,1.025,2.374,2.359C57.161,3.736,56.131,4.772,54.797,4.776z M56.376,27.578l-3.012,0.01
		c-0.302,0.001-0.431-0.128-0.432-0.429l-0.06-18.504c-0.001-0.301,0.128-0.431,0.429-0.432l3.013-0.01
		c0.301-0.001,0.431,0.128,0.432,0.429l0.06,18.503C56.807,27.448,56.678,27.577,56.376,27.578z"/>
	<path fill="#FFFFFF" d="M69.676,27.923c-3.529,0.012-6.938-2.947-6.952-7.25l-0.027-8.606c-0.001-0.301-0.131-0.43-0.432-0.429
		l-2.367,0.007c-0.301,0.001-0.431-0.127-0.432-0.429l0.082-1.506l4.932-5.266l0.301-0.13l1.334-0.004
		c0.301-0.001,0.431,0.128,0.432,0.429l0.01,3.012c0.001,0.301,0.13,0.43,0.432,0.429l3.012-0.009
		c0.302-0.001,0.431,0.127,0.432,0.429l0.009,2.582c0.001,0.301-0.128,0.431-0.429,0.432l-3.013,0.01
		c-0.301,0.001-0.43,0.13-0.429,0.432l0.027,8.606c0.003,0.904,0.307,1.678,0.955,2.493c0.389,0.472,1.293,0.771,2.586,1.325
		c0.216,0.086,0.345,0.172,0.346,0.43l0.008,2.582C70.493,27.877,70.277,27.921,69.676,27.923z"/>
</g>
<path fill="#FFFFFF" d="M9.838,11.812c0,0-1.345-0.067-1.439-0.989c-0.097-0.92,0.873-1.879,2.59-1.97
	c1.718-0.093,3.662-0.144,4.078-0.292c0.545-0.195,1.248-0.815,1.144-1.829c-0.099-1.013-1.574-2.114-3.206-2.349
	c-1.156-0.166-5.779-1.311-10.244,6.269c-1.16,1.974-1.744,1.737-2.176,1.612c-0.11-0.031-0.861-0.382-0.476-1.744
	c0.384-1.365,1.62-5.186,5.555-8.014c3.936-2.831,8.81-3.121,13.171-1.581c4.359,1.542,7.035,5.144,6.989,7.458
	c-0.036,1.848-1.236,3.355-5.486,3.387C15.942,11.8,9.838,11.812,9.838,11.812z"/>
<path fill="#FFFFFF" d="M17.259,16.237c0,0,1.344,0.068,1.439,0.988c0.095,0.918-0.872,1.881-2.588,1.971s-3.665,0.145-4.079,0.291
	c-0.543,0.197-1.247,0.816-1.146,1.828c0.101,1.016,1.572,2.115,3.207,2.35c1.157,0.166,5.777,1.312,10.241-6.27
	c1.165-1.971,1.749-1.734,2.177-1.611c0.113,0.035,0.864,0.383,0.48,1.746c-0.387,1.365-1.623,5.184-5.558,8.016
	c-3.936,2.83-8.811,3.117-13.169,1.578c-4.36-1.541-7.037-5.143-6.991-7.455c0.038-1.852,1.236-3.357,5.485-3.389
	C11.155,16.251,17.259,16.237,17.259,16.237z"/>
</svg>
